<svg width="52" height="69" fill="none" xmlns="http://www.w3.org/2000/svg"><path fill-rule="evenodd" clip-rule="evenodd" d="M51.992 5.764c-.017-1.978-2.566-3.303-8.228-4.301C39.06.637 32.765.173 26.077.173c-6.688 0-12.983.464-17.687 1.29C2.73 2.46.197 3.786.163 5.747v.035c0 .12.017.24.034.344l5.644 57.42c.172 1.858 2.327 3.148 6.757 4.077 3.644.775 8.502 1.188 13.701 1.188 5.064 0 9.853-.465 13.496-1.308 4.328-.998 6.466-2.375 6.535-4.233l2.805-28.426c.008-.043.012-.086.017-.129v-.011c.005-.04.01-.079.017-.118l2.788-28.443c.018-.12.035-.241.035-.361v-.018zm-8.228 57.334v.069c-.188.31-1.42 1.222-5.183 1.996-3.387.705-7.749 1.101-12.281 1.101-4.739 0-9.22-.361-12.624-1.032-3.866-.757-5.097-1.635-5.285-1.945L5.859 37.528c1.163.482 2.685.912 4.584 1.291 4.208.826 9.767 1.29 15.634 1.29 5.867 0 11.426-.464 15.634-1.29 1.9-.379 3.404-.809 4.568-1.29l-2.515 25.57zm-17.687-25.57c5.285 0 10.383-.378 14.317-1.084 3.968-.705 5.61-1.531 6.09-1.944-.497-.413-2.122-1.239-6.09-1.944-3.951-.706-9.032-1.084-14.317-1.084-5.286 0-10.383.378-14.317 1.084-3.968.705-5.61 1.531-6.09 1.944.48.413 2.122 1.239 6.09 1.944 3.951.706 9.031 1.084 14.317 1.084zm20.8-5.798c-1.232-.603-2.925-1.102-5.166-1.549-4.208-.826-9.767-1.29-15.634-1.29-5.867 0-11.427.464-15.634 1.29-2.224.447-3.935.946-5.15 1.549L3.037 8.707c1.3.533 3.08.98 5.371 1.393 4.704.826 10.999 1.291 17.687 1.291 6.688 0 12.983-.465 17.687-1.29 2.292-.396 4.054-.86 5.37-1.394L46.878 31.73zm-20.8-22.92c6.055 0 11.837-.379 16.284-1.084 4.687-.74 6.33-1.566 6.877-1.944-.548-.379-2.207-1.205-6.877-1.945-4.447-.705-10.229-1.084-16.284-1.084S14.24 3.132 9.793 3.837c-4.67.74-6.33 1.566-6.876 1.945.547.378 2.206 1.204 6.876 1.944C14.24 8.43 20.022 8.81 26.077 8.81z" fill="#F3084E"/><path d="M19.2 60.69l-5.114-1.309-1.351-6.349c-.154-.706-.838-1.153-1.523-.998a1.29 1.29 0 0 0-.992 1.531l1.523 7.124c.102.482.462.86.94.98l5.885 1.515c.12.017.222.035.325.035.564 0 1.077-.396 1.231-.964a1.29 1.29 0 0 0-.923-1.566z" fill="#F3084E"/></svg>