<svg width="55" height="77" viewBox="0 0 55 77" fill="none" xmlns="http://www.w3.org/2000/svg">
<path fill-rule="evenodd" clip-rule="evenodd" d="M46.2412 10.5125L54.7412 22.6027C54.8965 22.8256 54.9829 23.0828 55 23.3401V75.3708C55 76.074 54.4136 76.657 53.707 76.657H1.29297C0.586426 76.657 0 76.074 0 75.3708V23.563C0 23.2886 0.0688477 23.0485 0.224121 22.8256L8.72412 10.5296V1.28619C8.72412 0.583069 9.31055 0 10.0171 0H44.9482C45.6553 0 46.2412 0.583069 46.2412 1.28619V10.5125ZM51.6553 22.6884L45.0176 13.2563L38.2588 22.6884H51.6553ZM11.3105 2.57239H43.6553V9.84363H11.3105V2.57239ZM2.56885 74.0846H34.9312V25.2608H2.56885V74.0846ZM35.1035 22.6884H3.43115L10.5518 12.416H42.4482L35.1724 22.5855C35.1553 22.6198 35.1382 22.6541 35.1035 22.6884ZM37.5171 74.0846H52.3965V25.2608H37.5171V74.0846Z" transform="translate(0 0.171509)" fill="#F3084E"/>
<path fill-rule="evenodd" clip-rule="evenodd" d="M11.1206 28.227C17.7241 28.227 22.8965 23.6139 22.8965 17.7317C22.8965 13.1871 19.793 9.31139 15.4136 7.75084C16.1035 7.57933 16.793 7.37352 17.3447 7.0991C19.5518 6.12169 22.3105 2.62315 22.6206 2.22874C22.8965 1.86864 22.9653 1.37132 22.793 0.9597C22.6206 0.530989 22.2241 0.239485 21.7759 0.170882C21.2412 0.102278 16.4829 -0.48079 14.1553 0.994002C12.7759 1.80003 11.4653 4.18382 10.793 5.59007C10.4482 4.86973 10.0518 4.13231 9.62061 3.37779C9.25879 2.76036 8.46533 2.55455 7.84473 2.91478C7.22412 3.27489 7.01709 4.0637 7.37939 4.68114C7.89648 5.57286 8.34473 6.44749 8.72412 7.28783C3.74121 8.38536 0 12.8441 0 18.1604C0 23.9911 4.67236 28.227 11.1206 28.227ZM15.4653 3.20616C15.4741 3.19762 15.4868 3.18919 15.5 3.18065C15.5127 3.1721 15.5259 3.16344 15.5347 3.15477C16.1895 2.72606 17.5518 2.57164 18.9136 2.55455C18 3.51488 16.9829 4.44102 16.2759 4.74962C16.2676 4.74962 16.2588 4.75389 16.25 4.75828C16.2412 4.76256 16.2324 4.76683 16.2241 4.76683C15.6206 5.05833 14.6724 5.28123 13.7759 5.43565C14.3965 4.37242 15.0347 3.44627 15.4653 3.20616ZM10.0176 11.3008C9.89697 10.7691 9.77588 10.2375 9.62109 9.72301C5.62109 10.4261 2.58643 13.9418 2.58643 18.1433C2.58643 22.5506 6.10352 25.6374 11.1211 25.6374C16.2759 25.6374 20.3105 22.1562 20.3105 17.7146C20.3105 13.5815 16.8105 10.1689 12.2935 9.6544C12.4312 10.186 12.5518 10.7348 12.6553 11.3008H12.8623C13.5693 11.3008 14.1553 11.8838 14.1553 12.5869C14.1553 13.29 13.5693 13.8732 12.8623 13.8732H11.5518H10.0347C9.32764 13.8732 8.7417 13.29 8.7417 12.5869C8.7417 11.8838 9.31055 11.3008 10.0176 11.3008Z" transform="translate(7.18945 37.2659)" fill="#F3084E"/>
</svg>
