<svg width="61" height="80" viewBox="0 0 61 80" fill="none" xmlns="http://www.w3.org/2000/svg"><path fill-rule="evenodd" clip-rule="evenodd" d="M61 28a1.33 1.33 0 0 1-1.326 1.333h-1.326V72h1.326A1.33 1.33 0 0 1 61 73.333v5.334A1.33 1.33 0 0 1 59.674 80H1.326A1.33 1.33 0 0 1 0 78.667v-5.334A1.33 1.33 0 0 1 1.326 72h1.326V29.333H1.326A1.33 1.33 0 0 1 0 28V6.667C.004 2.987 2.97.004 6.63 0h47.74c3.66.004 6.626 2.987 6.63 6.667V28zM6.63 2.667c-2.197 0-3.978 1.79-3.978 4v20h55.696v-20c0-2.21-1.781-4-3.979-4H6.63zM41.074 72a6.622 6.622 0 0 0 1.36-4v-4h2.653c2.197 0 3.978-1.791 3.978-4v-5.334c0-2.208-1.78-4-3.978-4H19.89A1.33 1.33 0 0 0 18.565 52v16a6.62 6.62 0 0 0 1.36 4H10.61V29.333h9.282V36a1.33 1.33 0 0 0 1.326 1.333h5.305v4a1.33 1.33 0 0 0 1.326 1.334h5.304a1.33 1.33 0 0 0 1.326-1.334v-4h5.304A1.33 1.33 0 0 0 41.11 36v-6.667h9.282V72h-9.317zM21.217 53.333V68c0 2.209 1.781 4 3.979 4h10.608c2.197 0 3.978-1.791 3.978-4V53.333H21.217zm23.87 0a1.33 1.33 0 0 1 1.326 1.334V60a1.33 1.33 0 0 1-1.326 1.333h-2.652v-8h2.652zm-13.261-16h-2.652V40h2.652v-2.667zm-9.282-2.666v-5.334h15.912v5.334H22.543zM7.957 29.332H5.304V72h2.653V29.333zm50.39 48H2.653v-2.666h55.696v2.666zM53.045 72h2.652V29.333h-2.652V72z" fill="#F3084E"/><path d="M29.174 45.333h2.652V48h-2.652v-2.667z" fill="#F3084E"/><path fill-rule="evenodd" clip-rule="evenodd" d="M26.522 24H10.609a1.33 1.33 0 0 1-1.326-1.333v-16a1.33 1.33 0 0 1 1.326-1.334h15.913a1.33 1.33 0 0 1 1.326 1.333v16A1.33 1.33 0 0 1 26.522 24zM25.196 8H11.935v13.333h13.26V8zm14.587 5.333h-5.305A1.33 1.33 0 0 1 33.152 12V6.666a1.33 1.33 0 0 1 1.326-1.333h5.305a1.33 1.33 0 0 1 1.326 1.333V12a1.33 1.33 0 0 1-1.326 1.333zM38.456 8h-2.652v2.667h2.652V8zm11.935 5.333h-5.304A1.33 1.33 0 0 1 43.761 12V6.666a1.33 1.33 0 0 1 1.326-1.333h5.304a1.33 1.33 0 0 1 1.327 1.333V12a1.33 1.33 0 0 1-1.327 1.333zM49.065 8h-2.652v2.667h2.652V8zm1.326 16h-5.304a1.33 1.33 0 0 1-1.326-1.333v-5.334A1.33 1.33 0 0 1 45.087 16h5.304a1.33 1.33 0 0 1 1.327 1.333v5.334A1.33 1.33 0 0 1 50.39 24zm-1.326-5.333h-2.652v2.666h2.652v-2.666zM39.783 24h-5.305a1.33 1.33 0 0 1-1.326-1.333v-5.334A1.33 1.33 0 0 1 34.478 16h5.305a1.33 1.33 0 0 1 1.326 1.333v5.334A1.33 1.33 0 0 1 39.783 24zm-1.327-5.333h-2.652v2.666h2.652v-2.666z" fill="#F3084E"/></svg>