<svg width="51" height="80" viewBox="0 0 51 80" fill="none" xmlns="http://www.w3.org/2000/svg"><path fill-rule="evenodd" clip-rule="evenodd" d="M50.907 19.548c.048.128.076.263.082.4 0 .008.003.016.005.024A.088.088 0 0 1 51 20v58.667c0 .736-.6 1.333-1.338 1.333H1.505a1.335 1.335 0 0 1-1.338-1.333V19.993c0-.01.003-.018.005-.026.003-.008.006-.016.006-.026a1.336 1.336 0 0 1 .093-.433l.003-.008.002-.006a.335.335 0 0 1 .014-.04.136.136 0 0 0 .009-.026v-.002l.008-.022 3.873-7.719V1.333c0-.353.141-.692.392-.942a1.34 1.34 0 0 1 1.892 0L9.53 3.447 12.598.39a1.34 1.34 0 0 1 1.892 0l3.067 3.058L20.624.39a1.34 1.34 0 0 1 1.892 0l3.067 3.058L28.651.39a1.34 1.34 0 0 1 1.891 0l3.068 3.058L36.677.39a1.34 1.34 0 0 1 1.892 0l3.067 3.058L44.703.39a1.34 1.34 0 0 1 2.284.943v10.352l3.872 7.725a.09.09 0 0 1 .007.02l.01.03c.007.014.011.03.016.044l.003.01a.435.435 0 0 0 .012.034zM8.585 6.276l-1.73-1.724v6.115h37.456V4.552l-1.73 1.724c-.522.52-1.369.52-1.891 0l-3.067-3.057-3.068 3.057a1.34 1.34 0 0 1-1.891 0l-3.068-3.057-3.067 3.057a1.34 1.34 0 0 1-1.891 0L21.57 3.219l-3.067 3.057a1.34 1.34 0 0 1-1.892 0l-3.067-3.057-3.067 3.057a1.34 1.34 0 0 1-1.892 0zm36.237 7.057l2.676 5.333H3.669l2.675-5.333h38.478zm-41.98 64h45.482v-56H2.842v49.333h34.78v2.667H2.843v4z" fill="#F3084E"/><path d="M40.298 70.666h2.676v2.667h-2.676v-2.667z" fill="#F3084E"/><path fill-rule="evenodd" clip-rule="evenodd" d="M25.584 57.333c5.9 0 10.701-5.981 10.701-13.333s-4.8-13.333-10.701-13.333c-5.901 0-10.702 5.98-10.702 13.333 0 7.352 4.8 13.333 10.702 13.333zM33.61 44c0 4.43-2.044 8.237-4.95 9.847a9.02 9.02 0 0 0-2.14-10.79 6.7 6.7 0 0 1-.384-9.686c4.174.386 7.474 5 7.474 10.629zm-8.963.942a9.02 9.02 0 0 1-2.14-10.789c-2.906 1.61-4.95 5.416-4.95 9.847 0 5.63 3.302 10.242 7.474 10.63l.19-.205a6.702 6.702 0 0 0-.574-9.483z" fill="#F3084E"/></svg>