<svg width="80" height="66" viewBox="0 0 80 66" fill="none" xmlns="http://www.w3.org/2000/svg"><path fill-rule="evenodd" clip-rule="evenodd" d="M45.823 12.837c0-2.228 1.814-4.028 4.06-4.028 2.246 0 4.06 1.8 4.06 4.028 0 2.229-1.814 4.029-4.06 4.029-2.246 0-4.06-1.8-4.06-4.029zm2.592 0c0 .806.656 1.458 1.468 1.458.812 0 1.47-.652 1.47-1.458 0-.805-.658-1.457-1.47-1.457-.812 0-1.468.652-1.468 1.457zm11.887 10.235c0-2.229 1.815-4.029 4.06-4.029 2.247 0 4.061 1.8 4.061 4.029 0 2.228-1.814 4.028-4.06 4.028-2.246 0-4.06-1.8-4.06-4.028zm2.592 0c0 .805.657 1.457 1.469 1.457s1.469-.652 1.469-1.457c0-.806-.657-1.457-1.47-1.457a1.46 1.46 0 0 0-1.468 1.457zM8.587 41.723c0-2.263 1.867-4.114 4.147-4.114 2.281 0 4.147 1.851 4.147 4.114s-1.849 4.114-4.147 4.114c-2.28 0-4.147-1.85-4.147-4.114zm2.592 0c0 .857.691 1.543 1.555 1.543a1.543 1.543 0 1 0 0-3.086c-.864 0-1.555.686-1.555 1.543zm17.106-11.571c0 2.263-1.849 4.114-4.147 4.114-2.28 0-4.147-1.851-4.147-4.114s1.866-4.115 4.147-4.115c2.28 0 4.147 1.852 4.147 4.115zm-2.592 0c0-.858-.691-1.543-1.555-1.543a1.542 1.542 0 1 0 0 3.085c.864 0 1.555-.685 1.555-1.542zm6.117 16.577c0-2.606 2.126-4.715 4.752-4.715s4.752 2.109 4.752 4.715c0 2.605-2.126 4.714-4.752 4.714s-4.752-2.109-4.752-4.714zm2.592 0c0 1.183.968 2.143 2.16 2.143 1.192 0 2.16-.96 2.16-2.143a2.152 2.152 0 0 0-2.16-2.143c-1.192 0-2.16.96-2.16 2.143z" fill="#F3084E"/><path fill-rule="evenodd" clip-rule="evenodd" d="M77.114 14.912a1.261 1.261 0 0 0-.742-.652 1.303 1.303 0 0 0-.985.069c-.173.086-.726.086-.933.086-2.454 0-4.51-1.972-4.51-4.32v-.652c0-.446-.242-.857-.622-1.097a1.274 1.274 0 0 0-1.261-.051 5.364 5.364 0 0 1-2.212.514c-3.957 0-7.309-3.257-7.309-7.114 0-.618-.432-1.132-1.037-1.269-1.21-.24-2.16-.24-3.265-.24-9.314 0-18.074 5.674-22.463 14.469a31.057 31.057 0 0 0-4.008-.275c-7.413 0-14.376 2.675-19.612 7.526C2.903 26.792 0 33.289 0 40.197 0 54.323 12.458 65.81 27.767 65.81c9.78 0 18.402-4.697 23.36-11.777a23.25 23.25 0 0 0 3.594.274c11.318 0 21.426-8.126 24.467-20.263 1.572-6.343.83-13.337-2.074-19.131zM27.75 63.289c-13.874 0-25.174-10.337-25.174-23.04 0-12.823 11.3-23.263 25.175-23.263 13.874 0 25.175 10.44 25.175 23.263 0 12.703-11.3 23.04-25.175 23.04zm24.83-11.606c10.955 1.097 21.132-6.48 24.052-18.206 1.382-5.485.864-11.451-1.434-16.508-.294.017-.553.017-.778.017-3.525 0-6.462-2.503-7.015-5.777a8.5 8.5 0 0 1-1.59.171c-4.976 0-9.244-3.805-9.831-8.554-.553-.051-1.106-.051-1.78-.051-8.103 0-15.74 4.834-19.801 12.394 4.855 1.114 9.313 3.428 12.942 6.788 5.252 4.869 8.155 11.366 8.155 18.292 0 4.097-1.054 7.988-2.92 11.434z" fill="#F3084E"/><path d="M40.726 30.495l-.916.462v-.822a1.3 1.3 0 0 0-1.296-1.286 1.3 1.3 0 0 0-1.296 1.286v2.108l-2.09 1.046a1.281 1.281 0 0 0-.57 1.731 1.3 1.3 0 0 0 1.157.703c.19 0 .397-.051.587-.137l.916-.463v.823a1.3 1.3 0 0 0 1.296 1.286 1.3 1.3 0 0 0 1.296-1.286v-2.109l2.09-1.045c.64-.326.882-1.097.57-1.732a1.3 1.3 0 0 0-1.744-.565zm24.898 4.182v-.24a1.3 1.3 0 0 0-1.296-1.285 1.3 1.3 0 0 0-1.296 1.285v1.012l-1.883.566a1.285 1.285 0 0 0-.864 1.611 1.31 1.31 0 0 0 1.244.909c.121 0 .26-.018.38-.052l1.123-.343v2.126a1.3 1.3 0 0 0 1.296 1.286 1.3 1.3 0 0 0 1.296-1.286v-2.897l.588-.172c.69-.24 1.07-.96.864-1.628a1.299 1.299 0 0 0-1.452-.892zM27.11 51.872h-2.039l-1.105-2.28a1.304 1.304 0 0 0-1.728-.6 1.285 1.285 0 0 0-.605 1.714l.57 1.183h-.898a1.3 1.3 0 0 0-1.296 1.286 1.3 1.3 0 0 0 1.296 1.285h2.142l1.002 2.075a1.31 1.31 0 0 0 1.175.737c.19 0 .38-.035.553-.12.64-.309.916-1.08.605-1.715l-.466-.96h.794a1.3 1.3 0 0 0 1.296-1.285c0-.703-.587-1.32-1.296-1.32z" fill="#F3084E"/></svg>