<svg width="52" height="69" viewBox="0 0 52 69" fill="none" xmlns="http://www.w3.org/2000/svg">
<path fill-rule="evenodd" clip-rule="evenodd" d="M51.8291 5.59229C51.812 3.61346 49.2632 2.28851 43.6011 1.29053C38.8975 0.4646 32.6025 0 25.9146 0C19.2261 0 12.9316 0.4646 8.22754 1.29053C2.56592 2.28851 0.0341797 3.61346 0 5.57507V5.6095C0 5.72992 0.0170898 5.8504 0.0341797 5.95361L5.67871 63.3734C5.8501 65.2316 8.00537 66.5222 12.4355 67.4514C16.0791 68.2256 20.937 68.6386 26.1367 68.6386C31.2002 68.6386 35.9893 68.174 39.6328 67.3309C43.9604 66.3329 46.0986 64.9564 46.167 63.098L48.9722 34.6721C48.9805 34.6291 48.9849 34.586 48.9893 34.543L48.9902 34.5316C48.9941 34.4922 48.9985 34.4532 49.0063 34.414L51.7949 5.97083C51.812 5.8504 51.8291 5.72992 51.8291 5.6095V5.59229ZM43.6016 62.926V62.9948C43.4136 63.3045 42.1816 64.2165 38.4185 64.9908C35.0317 65.6962 30.6699 66.0921 26.1372 66.0921C21.3989 66.0921 16.9175 65.7307 13.5132 65.0596C9.64746 64.3026 8.41602 63.425 8.22803 63.1153L5.69629 37.3564C6.85938 37.8382 8.38184 38.2684 10.2803 38.6469C14.4883 39.4728 20.0474 39.9374 25.9146 39.9374C31.7817 39.9374 37.3408 39.4728 41.5488 38.6469C43.4478 38.2684 44.9526 37.8382 46.1162 37.3564L43.6016 62.926ZM25.9146 37.3564C31.1997 37.3564 36.2974 36.9778 40.2314 36.2723C44.1997 35.5668 45.8418 34.7409 46.3208 34.3279C45.8247 33.915 44.1997 33.0891 40.2314 32.3835C36.2803 31.678 31.1997 31.2995 25.9146 31.2995C20.6289 31.2995 15.5317 31.678 11.5972 32.3835C7.62891 33.0891 5.98682 33.915 5.50781 34.3279C5.98682 34.7409 7.62891 35.5668 11.5972 36.2723C15.5488 36.9778 20.6289 37.3564 25.9146 37.3564ZM46.7144 31.5576C45.4829 30.9554 43.7896 30.4564 41.5483 30.009C37.3408 29.183 31.7812 28.7184 25.9146 28.7184C20.0474 28.7184 14.4878 29.183 10.2803 30.009C8.05664 30.4564 6.3457 30.9554 5.13135 31.5576L2.87354 8.53467C4.17334 9.06805 5.95264 9.51544 8.24463 9.92841C12.9487 10.7544 19.2432 11.2189 25.9316 11.2189C32.6196 11.2189 38.9146 10.7544 43.6182 9.92841C45.9102 9.53265 47.6724 9.06805 48.9893 8.53467L46.7144 31.5576ZM25.9146 8.63794C31.9697 8.63794 37.7515 8.25934 42.1987 7.55389C46.8853 6.81396 48.5278 5.98804 49.0752 5.6095C48.5278 5.23096 46.8682 4.40497 42.1987 3.6651C37.7515 2.95959 31.9697 2.58105 25.9146 2.58105C19.8594 2.58105 14.0776 2.95959 9.63037 3.6651C4.96045 4.40497 3.30127 5.23096 2.75391 5.6095C3.30127 5.98804 4.96045 6.81396 9.63037 7.55389C14.0776 8.25934 19.8594 8.63794 25.9146 8.63794Z" transform="translate(0.162598 0.172058)" fill="#F3084E"/>
<path d="M9.01072 8.68575L3.89625 7.37802L2.54493 1.02865C2.39099 0.32316 1.70678 -0.124221 1.02257 0.0306414C0.32125 0.185504 -0.123487 0.873784 0.0304602 1.56206L1.55283 8.68575C1.65546 9.16755 2.01467 9.5461 2.49362 9.66655L8.37783 11.1808C8.49757 11.198 8.6002 11.2152 8.70283 11.2152C9.2673 11.2152 9.78046 10.8194 9.93441 10.2516C10.1055 9.56331 9.69493 8.85782 9.01072 8.68575Z" transform="translate(10.1899 52.0033)" fill="#F3084E"/>
</svg>
