<svg width="62" height="63" viewBox="0 0 62 63" fill="none" xmlns="http://www.w3.org/2000/svg"><path fill-rule="evenodd" clip-rule="evenodd" d="M20.758 61.014a1.204 1.204 0 1 0 0-2.406H2.435v-28.72L5.708 2.406h10.047v12.459a1.203 1.203 0 0 0 1.73 1.083l3.838-1.848 3.838 1.848a1.204 1.204 0 0 0 1.73-1.084V2.407H38.7l2.666 26.796a1.205 1.205 0 0 0 2.394-.286L40.966 1.06A1.204 1.204 0 0 0 39.77 0H4.638c-.61 0-1.125.456-1.197 1.061 0 0-3.417 28.708-3.417 28.756V59.81c0 .665.54 1.203 1.205 1.203h19.529zM10.55 37.872h-.363a1.204 1.204 0 1 0 0 2.407h.363a1.205 1.205 0 1 0 0-2.407zm7.35 4.705h.362a1.204 1.204 0 1 1 0 2.407H17.9a1.204 1.204 0 1 1 0-2.407zm.362 11.817a1.204 1.204 0 0 0 0-2.406H17.9a1.204 1.204 0 1 0 0 2.406h.363zm-8.075-4.705h.363a1.204 1.204 0 0 0 0-2.406h-.363a1.204 1.204 0 1 0 0 2.406zm2.626-4.705h-.363a1.204 1.204 0 1 1 0-2.407h.363a1.204 1.204 0 1 1 0 2.407zm5.353-32.036l2.632-1.267c.331-.16.717-.16 1.048 0l2.633 1.267V2.406h-6.313v10.542zm35.312 32.65a1.205 1.205 0 1 1 2.411 0c0 6.478-5.282 11.748-11.772 11.748a1.204 1.204 0 1 1 0-2.406c5.161 0 9.36-4.19 9.36-9.342zm8.441-9.254v9.764c0 9.284-7.567 16.836-16.87 16.836h-5.727c-9.302 0-16.87-7.553-16.87-16.836v-9.764c0-.664.54-1.203 1.205-1.203h37.056c.666 0 1.206.539 1.206 1.203zm-3.626 1.203h1.215v8.56c0 7.958-6.486 14.43-14.46 14.43h-5.726c-7.973 0-14.46-6.472-14.46-14.43v-8.56h33.433zM12.451 54.394h.363a1.204 1.204 0 1 0 0-2.407h-.363a1.204 1.204 0 1 0 0 2.407zm3.832-5.908c0 .664-.54 1.203-1.206 1.203h-.363a1.204 1.204 0 1 1 0-2.406h.363c.666 0 1.206.538 1.206 1.203zm-8.918-5.909h-.363a1.204 1.204 0 1 0 0 2.407h.363c.665 0 1.205-.54 1.205-1.203 0-.665-.54-1.204-1.205-1.204zm-.363 9.41h.363a1.205 1.205 0 0 1 0 2.406h-.363a1.204 1.204 0 1 1 0-2.406z" fill="#F3084E"/></svg>