<svg width="49" height="80" viewBox="0 0 49 80" fill="none" xmlns="http://www.w3.org/2000/svg"><path fill-rule="evenodd" clip-rule="evenodd" d="M8.638 42.781c0-8.826 7.12-16 15.878-16 8.759 0 15.878 7.174 15.878 16s-7.12 16-15.878 16-15.878-7.174-15.878-16zm15.878-13.42c-7.341 0-13.317 6.022-13.334 13.403 0 1.256.171 2.46.495 3.613 1.742-.499 4.525-1.445 5.669-2.443l.017-.017c1.31-1.1 2.042-2.817 2.813-4.626l.038-.088c.802-1.91 1.639-3.871 3.226-5.316 1.554-1.377 4.32-2.633 6.335-3.441a13.438 13.438 0 0 0-5.259-1.084zm13.3 13.455c.017 7.363-5.959 13.384-13.3 13.384-1.81 0-3.517-.36-5.088-1.014 1.708-.568 3.74-1.394 5.003-2.392l.068-.051c1.605-1.446 2.441-3.407 3.244-5.3.768-1.806 1.502-3.526 2.851-4.748 1.349-1.187 4.712-2.632 6.761-3.406.308 1.118.46 2.305.46 3.527zm-8.93-2.065l.018-.017c1.776-1.566 5.6-3.149 7.563-3.888a13.524 13.524 0 0 0-3.841-4.714c-1.793.62-5.788 2.185-7.46 3.681-1.139 1.029-1.817 2.618-2.535 4.3l-.044.105c-.854 2.047-1.758 4.163-3.551 5.677-1.554 1.342-4.627 2.392-6.403 2.908a13.225 13.225 0 0 0 3.756 4.593c1.64-.43 4.969-1.48 6.437-2.615 1.15-1.057 1.832-2.638 2.558-4.325l.02-.045c.837-1.995 1.724-4.06 3.483-5.66z" fill="#F3084E"/><path fill-rule="evenodd" clip-rule="evenodd" d="M45.977 13.517c.683.843 1.366 1.72 1.964 2.666.717 1.17 1.075 2.615 1.058 4.37v48.172c0 3.889-1.775 7.467-4.866 9.807a1.26 1.26 0 0 0-.102.06 1.097 1.097 0 0 1-.103.06c-1.553.774-3.26 1.204-4.695 1.204H9.816c-1.946 0-3.927-.67-5.736-1.944a.265.265 0 0 0-.035-.025l-.034-.026c-2.714-2.185-4.183-5.609-3.96-9.187V20.536c0-1.583.426-3.338 1.04-4.301.53-1.05 1.281-2.168 2.015-3.252l.103-.154c1.044-1.568 2.113-3.174 2.493-4.474v-.034h-.034c-.7 0-1.281-.585-1.281-1.29 0-.706.58-1.29 1.28-1.29H32.61L38.124.526a1.266 1.266 0 0 1 1.81.052 1.29 1.29 0 0 1-.052 1.824L36.365 5.74h7c.7 0 1.28.585 1.28 1.29 0 .706-.58 1.291-1.28 1.291h-.239v.12c.273 1.807 1.52 3.39 2.851 5.076zM42.7 76.364a9.64 9.64 0 0 0 3.756-7.673V20.5c0-1.22-.239-2.219-.682-2.958-.513-.81-1.127-1.6-1.793-2.426l-.029-.037c-1.493-1.898-3.03-3.85-3.369-6.38-.017-.052-.017-.12-.017-.173V8.32H8.263v.206c0 .12 0 .224-.034.327-.458 1.776-1.74 3.688-2.977 5.533l-.028.042-.146.219c-.681 1.019-1.32 1.975-1.75 2.826-.016.026-.03.047-.042.069a1.414 1.414 0 0 1-.043.068c-.222.327-.649 1.532-.649 2.908v48.259c-.188 2.77.888 5.333 2.971 7.02 1.383.963 2.851 1.462 4.251 1.462h29.417c1.008 0 2.305-.344 3.466-.895z" fill="#F3084E"/><path d="M12.872 71.46h-1.52c-1.69 0-3.072-1.341-3.072-2.993v-1.496c0-.706-.58-1.29-1.28-1.29-.7 0-1.281.584-1.281 1.29v1.496c0 3.08 2.527 5.574 5.634 5.574h1.52c.7 0 1.28-.584 1.28-1.29 0-.705-.58-1.29-1.28-1.29zm-5.89-44.524a1.25 1.25 0 0 0 1.264-1.29v-1.29c0-2.306.768-4.319 2.287-5.988l.035-.034c1.178-1.376 2.373-2.804 2.885-4.8a1.29 1.29 0 0 0-.922-1.566 1.279 1.279 0 0 0-1.554.93c-.358 1.41-1.314 2.546-2.339 3.75-1.929 2.133-2.936 4.8-2.936 7.707v1.29c0 .706.58 1.291 1.28 1.291z" fill="#F3084E"/></svg>