<svg width="80" height="66" viewBox="0 0 80 66" fill="none" xmlns="http://www.w3.org/2000/svg">
<path fill-rule="evenodd" clip-rule="evenodd" d="M0 4.02856C0 1.79999 1.81445 0 4.06055 0C6.30664 0 8.12109 1.79999 8.12109 4.02856C8.12109 6.25714 6.30664 8.05713 4.06055 8.05713C1.81445 8.05713 0 6.25714 0 4.02856ZM2.5918 4.02856C2.5918 4.83429 3.24854 5.48572 4.06055 5.48572C4.87256 5.48572 5.5293 4.83429 5.5293 4.02856C5.5293 3.22284 4.87256 2.57141 4.06055 2.57141C3.24854 2.57141 2.5918 3.22284 2.5918 4.02856Z" transform="translate(45.8228 8.80884)" fill="#F3084E"/>
<path fill-rule="evenodd" clip-rule="evenodd" d="M0 4.02856C0 1.79999 1.81445 0 4.06055 0C6.30664 0 8.12109 1.79999 8.12109 4.02856C8.12109 6.25714 6.30664 8.05719 4.06055 8.05719C1.81445 8.05719 0 6.25714 0 4.02856ZM2.5918 4.02856C2.5918 4.83429 3.24854 5.48572 4.06055 5.48572C4.87256 5.48572 5.5293 4.83429 5.5293 4.02856C5.5293 3.22284 4.87256 2.57141 4.06055 2.57141C3.24854 2.57141 2.5918 3.22284 2.5918 4.02856Z" transform="translate(60.3022 19.0431)" fill="#F3084E"/>
<path fill-rule="evenodd" clip-rule="evenodd" d="M0 4.11426C0 1.85144 1.86621 0 4.14697 0C6.42773 0 8.29395 1.85144 8.29395 4.11426C8.29395 6.3772 6.44482 8.22852 4.14697 8.22852C1.86621 8.22852 0 6.3772 0 4.11426ZM2.5918 4.11426C2.5918 4.97144 3.28271 5.6571 4.14697 5.6571C5.01074 5.6571 5.70215 4.97144 5.70215 4.11426C5.70215 3.25708 5.01074 2.57141 4.14697 2.57141C3.28271 2.57141 2.5918 3.25708 2.5918 4.11426Z" transform="translate(8.5874 37.6089)" fill="#F3084E"/>
<path fill-rule="evenodd" clip-rule="evenodd" d="M8.29395 4.11426C8.29395 6.3772 6.44482 8.22852 4.14697 8.22852C1.86621 8.22852 0 6.3772 0 4.11426C0 1.85144 1.86621 0 4.14697 0C6.42773 0 8.29395 1.85144 8.29395 4.11426ZM5.70215 4.11426C5.70215 3.25708 5.01074 2.57141 4.14697 2.57141C3.28271 2.57141 2.5918 3.25708 2.5918 4.11426C2.5918 4.97144 3.28271 5.6571 4.14697 5.6571C5.01074 5.6571 5.70215 4.97144 5.70215 4.11426Z" transform="translate(19.9912 26.0374)" fill="#F3084E"/>
<path fill-rule="evenodd" clip-rule="evenodd" d="M0 4.71423C0 2.10852 2.12549 0 4.75146 0C7.37793 0 9.50342 2.10852 9.50342 4.71423C9.50342 7.31995 7.37793 9.42859 4.75146 9.42859C2.12549 9.42859 0 7.31995 0 4.71423ZM2.5918 4.71423C2.5918 5.89709 3.55957 6.85718 4.75146 6.85718C5.94385 6.85718 6.91162 5.89709 6.91162 4.71423C6.91162 3.53137 5.94385 2.57141 4.75146 2.57141C3.55957 2.57141 2.5918 3.53137 2.5918 4.71423Z" transform="translate(31.8101 42.0145)" fill="#F3084E"/>
<path fill-rule="evenodd" clip-rule="evenodd" d="M77.1143 14.7257C76.959 14.4171 76.6997 14.1771 76.3716 14.0743C76.043 13.9714 75.6802 13.9886 75.3867 14.1429C75.2139 14.2286 74.6611 14.2286 74.4536 14.2286C72 14.2286 69.9438 12.2571 69.9438 9.90857V9.25714C69.9438 8.8114 69.7021 8.40002 69.3218 8.15997C68.9419 7.91998 68.458 7.90283 68.0605 8.10858C67.4385 8.41711 66.5747 8.62286 65.8486 8.62286C61.8921 8.62286 58.54 5.36572 58.54 1.50854C58.54 0.891418 58.1079 0.377136 57.5034 0.23999C56.2939 0 55.3433 0 54.2378 0C44.9243 0 36.1641 5.67426 31.7754 14.4686C30.4624 14.2971 29.1143 14.1943 27.7666 14.1943C20.354 14.1943 13.3911 16.8686 8.15527 21.72C2.90283 26.6058 0 33.1028 0 40.0114C0 54.1371 12.458 65.6229 27.7666 65.6229C37.5464 65.6229 46.1685 60.9257 51.1274 53.8458C52.3369 54.0342 53.5293 54.1201 54.7212 54.1201C66.0391 54.1201 76.147 45.9943 79.188 33.8571C80.7603 27.5143 80.0171 20.52 77.1143 14.7257ZM27.7495 63.1028C13.875 63.1028 2.57471 52.7657 2.57471 40.0628C2.57471 27.2399 13.875 16.8 27.7495 16.8C41.6245 16.8 52.9248 27.2399 52.9248 40.0628C52.9248 52.7657 41.6245 63.1028 27.7495 63.1028ZM52.5791 51.4971C63.5337 52.5943 73.7109 45.0172 76.6309 33.2914C78.0132 27.8057 77.4946 21.84 75.1968 16.7828C74.9028 16.8 74.6436 16.8 74.4189 16.8C70.8945 16.8 67.957 14.2971 67.4038 11.0228C66.8682 11.1257 66.3325 11.1943 65.8145 11.1943C60.8384 11.1943 56.5703 7.38855 55.9829 2.64001C55.4302 2.58856 54.877 2.58856 54.2031 2.58856C46.0996 2.58856 38.4624 7.42285 34.4019 14.9828C39.2573 16.0971 43.7148 18.4114 47.3438 21.7714C52.5962 26.64 55.499 33.1371 55.499 40.0628C55.499 44.16 54.4448 48.0515 52.5791 51.4971Z" transform="translate(0 0.185974)" fill="#F3084E"/>
<path d="M6.31096 1.64571L5.39519 2.10857V1.28571C5.39519 0.582857 4.80771 0 4.09929 0C3.39087 0 2.8034 0.582857 2.8034 1.28571V3.39429L0.712683 4.44C0.073374 4.76571 -0.185805 5.53714 0.142489 6.17143C0.367111 6.61714 0.833633 6.87429 1.30016 6.87429C1.49022 6.87429 1.69756 6.82286 1.88763 6.73714L2.8034 6.27429V7.09714C2.8034 7.8 3.39087 8.38286 4.09929 8.38286C4.80771 8.38286 5.39519 7.8 5.39519 7.09714V4.98857L7.4859 3.94286C8.12521 3.61714 8.36711 2.84571 8.0561 2.21143C7.7278 1.57714 6.95026 1.32 6.31096 1.64571Z" transform="translate(34.4146 28.8489)" fill="#F3084E"/>
<path d="M5.3956 1.52571V1.28571C5.3956 0.582857 4.80813 0 4.0997 0C3.39128 0 2.80381 0.582857 2.80381 1.28571V2.29714L0.920439 2.86286C0.229294 3.06857 -0.150836 3.78857 0.0565077 4.47429C0.229294 5.02286 0.747652 5.38286 1.30057 5.38286C1.42152 5.38286 1.55975 5.36571 1.6807 5.33143L2.80381 4.98857V7.11429C2.80381 7.81714 3.39128 8.4 4.0997 8.4C4.80813 8.4 5.3956 7.81714 5.3956 7.11429V4.21714L5.98307 4.04571C6.67422 3.80571 7.05435 3.08571 6.847 2.41714C6.65694 1.8 6.03491 1.42286 5.3956 1.52571Z" transform="translate(60.2285 33.1517)" fill="#F3084E"/>
<path d="M7.10151 3.007H5.06263L3.9568 0.727004C3.64579 0.0927187 2.86825 -0.181567 2.22894 0.127004C1.58963 0.435576 1.31317 1.207 1.62419 1.84129L2.19438 3.02415H1.2959C0.587473 3.02415 0 3.607 0 4.30986C0 5.01272 0.587473 5.59558 1.2959 5.59558H3.43844L4.4406 7.66986C4.66523 8.13272 5.13175 8.407 5.61555 8.407C5.80562 8.407 5.99568 8.37272 6.16847 8.287C6.80778 7.97843 7.08423 7.207 6.77322 6.57272L6.3067 5.61272H7.10151C7.80994 5.61272 8.39741 5.02986 8.39741 4.327C8.39741 3.62415 7.80994 3.007 7.10151 3.007Z" transform="translate(20.0088 48.8647)" fill="#F3084E"/>
</svg>
