<svg width="55" height="77" fill="none" xmlns="http://www.w3.org/2000/svg"><path d="M34.707 10.015h-4.362a1.3 1.3 0 0 0-1.293 1.286c0 .703.586 1.286 1.293 1.286h4.362A1.3 1.3 0 0 0 36 11.301a1.3 1.3 0 0 0-1.293-1.286z" fill="#F3084E"/><path fill-rule="evenodd" clip-rule="evenodd" d="M22.88 52.442c.016 2.504-2.19 4.476-4.984 4.476-2.637 0-4.793-2.023-4.793-4.493 0-2.092 2.793-7.237 3.656-8.763a1.292 1.292 0 0 1 1.103-.652c.466-.017.897.24 1.12.635.914 1.526 3.897 6.67 3.897 8.797zm-2.57-.034c0-.738-1.103-3.104-2.379-5.47-1.206 2.349-2.241 4.715-2.241 5.47 0 1.046 1 1.92 2.207 1.92 1.517 0 2.414-.977 2.414-1.92z" fill="#F3084E"/><path d="M24.448 10.015h-4.362a1.3 1.3 0 0 0-1.293 1.286c0 .703.586 1.286 1.293 1.286h4.362a1.3 1.3 0 0 0 1.293-1.286 1.3 1.3 0 0 0-1.293-1.286z" fill="#F3084E"/><path fill-rule="evenodd" clip-rule="evenodd" d="M54.759 22.774l-8.5-12.09V1.458A1.3 1.3 0 0 0 44.965.172H10.017a1.3 1.3 0 0 0-1.293 1.286V10.7l-8.5 12.296a1.241 1.241 0 0 0-.224.738v51.807a1.3 1.3 0 0 0 1.293 1.287h52.414A1.3 1.3 0 0 0 55 75.542v-52.03a1.3 1.3 0 0 0-.241-.738zm-9.724-9.346l6.637 9.432H38.276l6.759-9.432zM2.586 74.256H34.95V25.432H2.586v48.824zM35.121 22.86H3.448l7.104-10.272h3.827a1.3 1.3 0 0 0 1.293-1.287 1.3 1.3 0 0 0-1.293-1.286H11.31V2.744h32.362v7.271h-3.069c-.706 0-1.293.583-1.293 1.286 0 .703.587 1.287 1.293 1.287h1.862L35.19 22.757a.351.351 0 0 1-.068.103zm2.414 51.396h14.88V25.432h-14.88v48.824z" fill="#F3084E"/><path d="M44.966 59.697c.724 0 1.293-.566 1.293-1.287V35.722a1.3 1.3 0 0 0-1.293-1.286 1.3 1.3 0 0 0-1.294 1.286V58.41a1.3 1.3 0 0 0 1.294 1.286zM44.966 65.476c.724 0 1.293-.566 1.293-1.286v-1.492a1.3 1.3 0 0 0-1.293-1.287 1.3 1.3 0 0 0-1.294 1.287v1.492a1.3 1.3 0 0 0 1.294 1.286z" fill="#F3084E"/></svg>