<svg width="49" height="80" viewBox="0 0 49 80" fill="none" xmlns="http://www.w3.org/2000/svg">
<path fill-rule="evenodd" clip-rule="evenodd" d="M0 16C0 7.17419 7.11963 0 15.8779 0C24.6367 0 31.7559 7.17419 31.7559 16C31.7559 24.8258 24.6367 32 15.8779 32C7.11963 32 0 24.8258 0 16ZM15.8779 2.58063C8.53662 2.58063 2.56104 8.60211 2.54395 15.9828C2.54395 17.2386 2.71484 18.443 3.03906 19.5957C4.78076 19.0968 7.56348 18.1505 8.70752 17.1527L8.72461 17.1355C10.0347 16.0352 10.7671 14.3184 11.5381 12.5099L11.5757 12.4215C12.3779 10.5118 13.2148 8.55054 14.8022 7.10535C16.356 5.729 19.1221 4.47308 21.1367 3.66449C19.5146 2.97632 17.7393 2.58063 15.8779 2.58063ZM29.1777 16.0344C29.1948 23.3978 23.2192 29.4193 15.8779 29.4193C14.0679 29.4193 12.3608 29.0581 10.79 28.4043C12.4976 27.8365 14.5293 27.0107 15.7925 26.0129L15.8608 25.9613C17.4658 24.5161 18.3022 22.5548 19.1045 20.6624C19.873 18.8558 20.6069 17.1355 21.9561 15.9139C23.3047 14.7268 26.668 13.2817 28.7168 12.5075C29.0244 13.6257 29.1777 14.8129 29.1777 16.0344ZM20.2485 13.9698L20.2656 13.9526C22.0415 12.3871 25.8657 10.8043 27.8291 10.0645C26.9243 8.20642 25.5928 6.60645 23.9878 5.35052C22.1953 5.96991 18.2002 7.53546 16.5269 9.03223C15.3892 10.0604 14.7109 11.6501 13.9932 13.332L13.9487 13.4365C13.0952 15.4839 12.1904 17.6 10.3975 19.114C8.84375 20.4559 5.77051 21.5054 3.99512 22.0215C4.88281 23.828 6.18066 25.3936 7.75098 26.615C9.39014 26.1849 12.7197 25.1355 14.188 24C15.3384 22.9427 16.0195 21.3616 16.7461 19.6752L16.7656 19.6301C17.6025 17.6344 18.4902 15.5698 20.2485 13.9698Z" transform="translate(8.63818 26.7812)" fill="#F3084E"/>
<path fill-rule="evenodd" clip-rule="evenodd" d="M45.9488 13.3448C46.6319 14.1878 47.3145 15.0652 47.9122 16.0114C48.6294 17.1815 48.9878 18.6265 48.9708 20.3814V68.5534C48.9708 72.4416 47.1954 76.0201 44.105 78.3598C44.0709 78.377 44.0367 78.3985 44.0025 78.4201C43.9683 78.4416 43.9341 78.4631 43.9 78.4803C42.3462 79.2545 40.6392 79.6845 39.2051 79.6845H9.78765C7.84136 79.6845 5.86089 79.0136 4.05132 77.7404C4.04302 77.7319 4.02983 77.7232 4.01714 77.7147C4.00444 77.7061 3.99126 77.6975 3.98296 77.6889C1.2686 75.504 -0.200147 72.0803 0.0220207 68.5018V20.3642C0.0220207 18.7813 0.448779 17.0265 1.06352 16.0631C1.59282 15.0136 2.3438 13.8953 3.07817 12.8115L3.18071 12.6573C4.22466 11.0886 5.29351 9.48281 5.67339 8.18349V8.14907H5.63921C4.93901 8.14907 4.35845 7.56417 4.35845 6.85878C4.35845 6.1534 4.93901 5.56844 5.63921 5.56844H6.95366H32.5806L38.0953 0.355549C38.6075 -0.143414 39.4268 -0.10899 39.9048 0.407123C40.4 0.923298 40.3658 1.7491 39.8536 2.23079L36.3365 5.56844H41.8169H43.3365C44.0367 5.56844 44.6172 6.1534 44.6172 6.85878C44.6172 7.56417 44.0367 8.14907 43.3365 8.14907H43.0977V8.26949C43.3707 10.0759 44.6172 11.6588 45.9488 13.3448ZM42.6709 76.1921C45.0611 74.3341 46.4268 71.547 46.4268 68.519V20.3297C46.4268 19.1082 46.188 18.1104 45.7442 17.3706C45.232 16.562 44.6172 15.7706 43.9512 14.9448L43.9229 14.9085C42.4292 13.0103 40.8931 11.0577 40.5538 8.52755C40.5367 8.47597 40.5367 8.40712 40.5367 8.35555V8.14907H8.23442V8.35555C8.23442 8.47597 8.23442 8.57918 8.20024 8.68239C7.74272 10.4582 6.46099 12.3696 5.22319 14.2148L5.19536 14.2566L5.04936 14.4756C4.3687 15.4946 3.73052 16.4506 3.30034 17.3018C3.28325 17.3277 3.27056 17.3492 3.25737 17.3707C3.24468 17.3922 3.23198 17.4137 3.21489 17.4394C2.99272 17.7663 2.56597 18.9706 2.56597 20.3469V68.519V68.6049C2.37798 71.3748 3.45366 73.9383 5.53667 75.6243C6.91948 76.5877 8.38774 77.0867 9.78813 77.0867H39.2051C40.2125 77.0867 41.5098 76.7426 42.6709 76.1921Z" transform="translate(0.0283203 0.171936)" fill="#F3084E"/>
<path d="M7.15366 5.78065H5.63415C3.9439 5.78065 2.56098 4.43871 2.56098 2.7871V1.29032C2.56098 0.584946 1.98049 0 1.28049 0C0.580488 0 0 0.584946 0 1.29032V2.7871C0 5.86667 2.52683 8.36129 5.63415 8.36129H7.15366C7.85366 8.36129 8.43415 7.77634 8.43415 7.07097C8.43415 6.36559 7.85366 5.78065 7.15366 5.78065Z" transform="translate(5.71875 65.6802)" fill="#F3084E"/>
<path d="M1.28049 15.0067C1.99756 15.0067 2.56098 14.439 2.5439 13.7164V12.4261C2.5439 10.1207 3.3122 8.10781 4.83171 6.439C4.84878 6.42179 4.84878 6.42179 4.86585 6.40459C6.0439 5.02824 7.23902 3.60029 7.75122 1.60459C7.92195 0.916417 7.5122 0.211041 6.82927 0.038998C6.14634 -0.133045 5.44634 0.279858 5.27561 0.96803C4.91707 2.37878 3.96098 3.51427 2.93659 4.71857C1.00732 6.8519 0 9.51857 0 12.4261V13.7164C0 14.4218 0.580488 15.0067 1.28049 15.0067Z" transform="translate(5.70166 11.9293)" fill="#F3084E"/>
</svg>
