<svg width="55" height="77" viewBox="0 0 55 77" fill="none" xmlns="http://www.w3.org/2000/svg">
<path d="M5.65517 0H1.2931C0.586207 0 0 0.583074 0 1.28619C0 1.98931 0.586207 2.57238 1.2931 2.57238H5.65517C6.36207 2.57238 6.94828 1.98931 6.94828 1.28619C6.94828 0.583074 6.36207 0 5.65517 0Z" transform="translate(29.0518 10.0151)" fill="#F3084E"/>
<path fill-rule="evenodd" clip-rule="evenodd" d="M9.77588 9.43282C9.79297 11.9366 7.58643 13.9088 4.79297 13.9088C2.15527 13.9088 0 11.8852 0 9.41573C0 7.32345 2.79297 2.17867 3.65527 0.652425C3.87939 0.258016 4.31055 0.000813958 4.75879 0.000813958C5.22412 -0.016398 5.65527 0.240804 5.87939 0.635335C6.79297 2.16158 9.77588 7.30636 9.77588 9.43282ZM7.20703 9.39852C7.20703 8.66109 6.10352 6.29452 4.82764 3.92794C3.62109 6.27743 2.58643 8.644 2.58643 9.39852C2.58643 10.4447 3.58643 11.3193 4.79346 11.3193C6.31055 11.3193 7.20703 10.3418 7.20703 9.39852Z" transform="translate(13.1035 43.0094)" fill="#F3084E"/>
<path d="M5.65517 0H1.2931C0.586207 0 0 0.583074 0 1.28619C0 1.98931 0.586207 2.57238 1.2931 2.57238H5.65517C6.36207 2.57238 6.94828 1.98931 6.94828 1.28619C6.94828 0.583074 6.36207 0 5.65517 0Z" transform="translate(18.793 10.0151)" fill="#F3084E"/>
<path fill-rule="evenodd" clip-rule="evenodd" d="M54.7588 22.6027L46.2588 10.5125V1.28619C46.2588 0.583069 45.6724 0 44.9653 0H10.0171C9.31055 0 8.72412 0.583069 8.72412 1.28619V10.5296L0.224121 22.8256C0.0688477 23.0485 0 23.2886 0 23.563V75.3708C0 76.074 0.586426 76.657 1.29297 76.657H53.707C54.4136 76.657 55 76.074 55 75.3708V23.3401C55 23.0828 54.9136 22.8256 54.7588 22.6027ZM45.0347 13.2563L51.6724 22.6884H38.2759L45.0347 13.2563ZM2.58643 74.0846H34.9487V25.2608H2.58643V74.0846ZM35.1206 22.6884H3.44824L10.5518 12.416H14.3794C15.0859 12.416 15.6724 11.8329 15.6724 11.1298C15.6724 10.4268 15.0859 9.84363 14.3794 9.84363H11.3105V2.57239H43.6724V9.84363H40.6035C39.8965 9.84363 39.3105 10.4268 39.3105 11.1298C39.3105 11.8329 39.8965 12.416 40.6035 12.416H42.4653L35.1895 22.5855C35.1724 22.6198 35.1553 22.6541 35.1206 22.6884ZM37.5347 74.0846H52.4141V25.2608H37.5347V74.0846Z" transform="translate(0 0.171509)" fill="#F3084E"/>
<path d="M1.2931 25.2608C2.01724 25.2608 2.58621 24.6949 2.58621 23.9746V1.28619C2.58621 0.583074 2 0 1.2931 0C0.586207 0 0 0.583074 0 1.28619V23.9746C0 24.6777 0.586207 25.2608 1.2931 25.2608Z" transform="translate(43.6724 34.4357)" fill="#F3084E"/>
<path d="M1.2931 4.06437C2.01724 4.06437 2.58621 3.49844 2.58621 2.77817V1.28619C2.58621 0.583074 2 0 1.2931 0C0.586207 0 0 0.583074 0 1.28619V2.77817C0 3.48129 0.586207 4.06437 1.2931 4.06437Z" transform="translate(43.6724 61.4114)" fill="#F3084E"/>
</svg>
