<svg width="55" height="77" fill="none" xmlns="http://www.w3.org/2000/svg"><path fill-rule="evenodd" clip-rule="evenodd" d="M46.241 10.684l8.5 12.09c.156.223.242.48.259.738v52.03a1.3 1.3 0 0 1-1.293 1.287H1.293A1.3 1.3 0 0 1 0 75.542V23.735c0-.275.069-.515.224-.738l8.5-12.296V1.458A1.3 1.3 0 0 1 10.017.172h34.931c.707 0 1.293.583 1.293 1.286v9.226zm5.414 12.176l-6.637-9.432-6.76 9.432h13.397zM11.31 2.744h32.345v7.271H11.31V2.744zM2.57 74.256H34.93V25.432H2.57v48.824zM35.104 22.86H3.43l7.12-10.272h31.897l-7.276 10.169c-.017.034-.034.069-.069.103zm2.413 51.396h14.88V25.432h-14.88v48.824z" fill="#F3084E"/><path fill-rule="evenodd" clip-rule="evenodd" d="M18.31 65.493c6.604 0 11.776-4.613 11.776-10.495 0-4.545-3.104-8.42-7.483-9.981.69-.172 1.38-.378 1.931-.652 2.207-.977 4.966-4.476 5.276-4.87.276-.36.345-.858.172-1.27a1.303 1.303 0 0 0-1.017-.788c-.534-.069-5.293-.652-7.62.823-1.38.806-2.69 3.19-3.363 4.596a34.632 34.632 0 0 0-1.172-2.212 1.3 1.3 0 0 0-1.776-.463 1.285 1.285 0 0 0-.465 1.766c.517.892.965 1.766 1.345 2.607-4.983 1.097-8.725 5.556-8.725 10.872 0 5.831 4.673 10.067 11.121 10.067zm4.345-25.02a.237.237 0 0 1 .034-.026c.013-.009.026-.018.035-.026.655-.429 2.017-.583 3.379-.6-.914.96-1.93 1.886-2.638 2.195a.063.063 0 0 0-.026.008.064.064 0 0 1-.025.009c-.604.291-1.552.514-2.449.669.621-1.064 1.26-1.99 1.69-2.23zm-5.448 8.094a23.643 23.643 0 0 0-.396-1.578c-4 .703-7.035 4.219-7.035 8.42 0 4.408 3.517 7.494 8.535 7.494 5.154 0 9.189-3.48 9.189-7.922 0-4.134-3.5-7.546-8.017-8.06.138.53.258 1.08.362 1.646h.207c.707 0 1.293.583 1.293 1.286 0 .703-.586 1.286-1.293 1.286H17.224a1.299 1.299 0 0 1-1.293-1.286c0-.703.569-1.286 1.276-1.286z" fill="#F3084E"/></svg>