<svg width="64" height="80" fill="none" xmlns="http://www.w3.org/2000/svg"><path fill-rule="evenodd" clip-rule="evenodd" d="M1.333 0h61.334C63.402 0 64 .597 64 1.333v77.334c0 .736-.597 1.333-1.334 1.333H1.334A1.334 1.334 0 0 1 0 78.667V1.333C0 .597.597 0 1.333 0zm1.334 77.333h58.666V2.667H2.667v74.666z" fill="#F3084E"/><path d="M9.333 24h5.334v-2.667h-4v-8h4v-2.666H9.333C8.597 10.667 8 11.264 8 12v10.667C8 23.403 8.597 24 9.333 24z" fill="#F3084E"/><path fill-rule="evenodd" clip-rule="evenodd" d="M22.666 24h-5.333A1.334 1.334 0 0 1 16 22.667V12c0-.736.597-1.333 1.333-1.333h5.334c.736 0 1.333.597 1.333 1.333v10.667c0 .736-.597 1.333-1.333 1.333zm-1.333-10.667h-2.667v8h2.667v-8z" fill="#F3084E"/><path d="M28 17.333h4v-2.666h-4v-1.334h4v-2.666h-5.333c-.737 0-1.334.597-1.334 1.333v12H28v-6.667zM36 17.333h4v-2.666h-4v-1.334h4v-2.666h-5.333c-.737 0-1.334.597-1.334 1.333v12H36v-6.667zM42.667 24H48v-2.667h-4v-2.666h4V16h-4v-2.667h4v-2.666h-5.333c-.737 0-1.334.597-1.334 1.333v10.667c0 .736.598 1.333 1.334 1.333zM50.667 24H56v-2.667h-4v-2.666h4V16h-4v-2.667h4v-2.666h-5.333c-.737 0-1.334.597-1.334 1.333v10.667c0 .736.598 1.333 1.334 1.333z" fill="#F3084E"/><path fill-rule="evenodd" clip-rule="evenodd" d="M44 42.667H22.667c-.736 0-1.334.597-1.334 1.333v13.333A6.675 6.675 0 0 0 28 64h8a6.675 6.675 0 0 0 6.667-6.667v-4H44a4 4 0 0 0 4-4v-2.666a4 4 0 0 0-4-4zm-4 14.666a4 4 0 0 1-4 4h-8a4 4 0 0 1-4-4v-12h16v12zm4-6.666c.737 0 1.334-.597 1.334-1.334v-2.666c0-.737-.597-1.334-1.334-1.334h-1.333v5.334h1.334z" fill="#F3084E"/><path d="M33.733 32h-2.667a.978.978 0 0 1-.209.648 3.75 3.75 0 0 0 0 4.04c.28.386.28.907 0 1.293a3.575 3.575 0 0 0-.59 2.019h2.666a.974.974 0 0 1 .21-.645 3.747 3.747 0 0 0 0-4.039 1.108 1.108 0 0 1 0-1.296 3.568 3.568 0 0 0 .59-2.02zM40.4 32h-2.667a.978.978 0 0 1-.209.648 3.75 3.75 0 0 0 0 4.04c.28.386.28.907 0 1.293a3.575 3.575 0 0 0-.59 2.019H39.6a.974.974 0 0 1 .21-.645 3.747 3.747 0 0 0 0-4.039 1.108 1.108 0 0 1 0-1.296A3.568 3.568 0 0 0 40.4 32zM24.19 36.688c.28.386.28.907 0 1.293A3.575 3.575 0 0 0 23.6 40h2.667a.974.974 0 0 1 .209-.645 3.747 3.747 0 0 0 0-4.039 1.108 1.108 0 0 1 0-1.296 3.568 3.568 0 0 0 .59-2.02H24.4a.978.978 0 0 1-.21.648 3.75 3.75 0 0 0 0 4.04z" fill="#F3084E"/></svg>