<svg width="160" height="143" viewBox="0 0 160 143" fill="none" xmlns="http://www.w3.org/2000/svg">
<g id="logo">
<path id="bg" fill-rule="evenodd" clip-rule="evenodd" d="M0 28.4444C0 18.488 0 13.5097 1.93766 9.70684C3.64208 6.36173 6.36173 3.64208 9.70684 1.93766C13.5097 0 18.488 0 28.4444 0H131.556C141.512 0 146.49 0 150.293 1.93766C153.638 3.64208 156.358 6.36173 158.062 9.70684C160 13.5097 160 18.488 160 28.4444V114.556C160 124.512 160 129.49 158.062 133.293C156.358 136.638 153.638 139.358 150.293 141.062C146.49 143 141.512 143 131.556 143H28.4444C18.488 143 13.5097 143 9.70684 141.062C6.36173 139.358 3.64208 136.638 1.93766 133.293C0 129.49 0 124.512 0 114.556V28.4444Z" fill="#F3084E"/>
<path id="number" fill-rule="evenodd" clip-rule="evenodd" d="M0 14.2222C0 9.24398 0 6.75486 0.968831 4.85342C1.82104 3.18087 3.18087 1.82104 4.85342 0.968831C6.75486 0 9.24398 0 14.2222 0H110.222C115.2 0 117.69 0 119.591 0.968831C121.264 1.82104 122.623 3.18087 123.476 4.85342C124.444 6.75486 124.444 9.24398 124.444 14.2222V57.2778C124.444 62.256 124.444 64.7451 123.476 66.6466C122.623 68.3191 121.264 69.679 119.591 70.5312C117.69 71.5 115.2 71.5 110.222 71.5H14.2222C9.24398 71.5 6.75486 71.5 4.85342 70.5312C3.18087 69.679 1.82104 68.3191 0.968831 66.6466C0 64.7451 0 62.256 0 57.2778V14.2222Z" transform="translate(17.7773 17.875)" fill="white"/>
<path id="911" fill-rule="evenodd" clip-rule="evenodd" d="M12.4 57.1106C11.92 57.1106 11.5333 56.9363 11.24 56.5878C10.9467 56.2392 10.8 55.8236 10.8 55.341C10.8 54.9656 10.9067 54.6171 11.12 54.2953L23.44 37.0817C22.16 37.4034 20.6667 37.5643 18.96 37.5643C15.12 37.5107 11.76 36.6125 8.88 34.8697C5.99999 33.1268 3.80001 30.8478 2.28 28.0325C0.759992 25.2171 0 22.2008 0 18.9832C0 15.7657 0.759992 12.7091 2.28 9.81338C3.80001 6.91761 6.06665 4.55813 9.08 2.73487C12.0933 0.911616 15.7333 0 20 0C24.2667 0 27.92 0.884804 30.96 2.65444C34 4.42407 36.2933 6.74333 37.84 9.61228C39.3867 12.4812 40.16 15.5512 40.16 18.8224C40.16 21.7718 39.64 24.3726 38.6 26.6248C37.56 28.8771 36.1867 31.2097 34.48 33.6229L18.96 55.5019C18.5867 55.9845 18.2267 56.3733 17.88 56.6682C17.5333 56.9632 17.04 57.1106 16.4 57.1106H12.4ZM19.9996 31.2098C22.293 31.2098 24.3996 30.7003 26.3196 29.6814C28.2396 28.6626 29.7596 27.2281 30.8796 25.378C31.9996 23.528 32.5596 21.3964 32.5596 18.9833C32.5596 16.5165 31.9996 14.3447 30.8796 12.4678C29.7596 10.5909 28.2396 9.14308 26.3196 8.1242C24.3996 7.10532 22.293 6.59589 19.9996 6.59589C17.7596 6.59589 15.693 7.10532 13.7996 8.1242C11.9063 9.14308 10.3996 10.5909 9.27961 12.4678C8.1596 14.3447 7.59961 16.5165 7.59961 18.9833C7.59961 21.3964 8.1596 23.528 9.27961 25.378C10.3996 27.2281 11.8929 28.6626 13.7596 29.6814C15.6263 30.7003 17.7063 31.2098 19.9996 31.2098ZM64.4618 57.1106C63.9285 57.1106 63.5018 56.9364 63.1818 56.5878C62.8618 56.2392 62.7018 55.7968 62.7018 55.2606V9.89382L49.2618 20.2703C48.8885 20.592 48.4885 20.7529 48.0618 20.7529C47.5818 20.7529 47.1285 20.4848 46.7018 19.9485L44.7818 17.4549C44.5152 17.0796 44.3818 16.7042 44.3818 16.3288C44.3818 15.7389 44.6485 15.2563 45.1818 14.8809L62.5418 1.36744C63.1285 0.992068 63.8218 0.804382 64.6218 0.804382H68.3818C68.9152 0.804382 69.3552 0.978662 69.7018 1.32723C70.0485 1.67579 70.2218 2.11819 70.2218 2.65444V55.2606C70.2218 55.7968 70.0485 56.2392 69.7018 56.5878C69.3552 56.9364 68.9152 57.1106 68.3818 57.1106H64.4618ZM96.6845 57.1106C96.1512 57.1106 95.7245 56.9364 95.4045 56.5878C95.0845 56.2392 94.9245 55.7968 94.9245 55.2606V9.89382L81.4845 20.2703C81.1112 20.592 80.7112 20.7529 80.2845 20.7529C79.8045 20.7529 79.3512 20.4848 78.9245 19.9485L77.0045 17.4549C76.7378 17.0796 76.6045 16.7042 76.6045 16.3288C76.6045 15.7389 76.8712 15.2563 77.4045 14.8809L94.7645 1.36744C95.3512 0.992068 96.0445 0.804382 96.8445 0.804382H100.604C101.138 0.804382 101.578 0.978662 101.924 1.32723C102.271 1.67579 102.444 2.11819 102.444 2.65444V55.2606C102.444 55.7968 102.271 56.2392 101.924 56.5878C101.578 56.9364 101.138 57.1106 100.604 57.1106H96.6845Z" transform="translate(25.3418 25.5612)" fill="#F3084E"/>
<path id="office" fill-rule="evenodd" clip-rule="evenodd" d="M9.70667 22.5225C6.76147 22.5225 4.43853 21.803 2.73778 20.3641C1.03703 18.9251 0.134815 16.8085 0.0311111 14.014C0.0103703 13.4301 0 12.5334 0 11.3238C0 10.1143 0.0103703 9.20712 0.0311111 8.60234C0.114074 5.84958 1.02147 3.72769 2.75333 2.23661C4.48519 0.745529 6.80295 0 9.70667 0C12.5896 0 14.897 0.745529 16.6289 2.23661C18.3608 3.72769 19.2681 5.84958 19.3511 8.60234C19.3926 9.81189 19.4133 10.719 19.4133 11.3238C19.4133 11.9494 19.3926 12.8462 19.3511 14.014C19.2474 16.8085 18.3504 18.9251 16.66 20.3641C14.9696 21.803 12.6519 22.5225 9.70667 22.5225ZM9.70627 17.8303C10.7848 17.8303 11.6455 17.5019 12.2885 16.845C12.9315 16.1881 13.2737 15.1819 13.3152 13.8263C13.3566 12.6168 13.3774 11.7513 13.3774 11.23C13.3774 10.7086 13.3566 9.86404 13.3152 8.6962C13.2737 7.34067 12.9315 6.33447 12.2885 5.67756C11.6455 5.02065 10.7848 4.6922 9.70627 4.6922C8.607 4.6922 7.7359 5.02065 7.09293 5.67756C6.44997 6.33447 6.10775 7.34067 6.06627 8.6962C6.04553 9.28012 6.03516 10.1247 6.03516 11.23C6.03516 12.3561 6.04553 13.2216 6.06627 13.8263C6.10775 15.1819 6.44997 16.1881 7.09293 16.845C7.7359 17.5019 8.607 17.8303 9.70627 17.8303ZM26.1293 22.2097C25.9219 22.2097 25.7405 22.1315 25.5849 21.9751C25.4293 21.8187 25.3516 21.6362 25.3516 21.4276V1.12612C25.3516 0.896721 25.4242 0.703822 25.5693 0.547415C25.7145 0.391008 25.9012 0.312805 26.1293 0.312805H40.596C40.8242 0.312805 41.016 0.391008 41.1716 0.547415C41.3271 0.703822 41.4049 0.896721 41.4049 1.12612V4.44193C41.4049 4.67133 41.3271 4.85901 41.1716 5.00499C41.016 5.15097 40.8242 5.22396 40.596 5.22396H31.076V9.57205H39.9738C40.2019 9.57205 40.3938 9.65026 40.5493 9.80666C40.7049 9.96307 40.7827 10.156 40.7827 10.3854V13.7012C40.7827 13.9306 40.7049 14.1183 40.5493 14.2642C40.3938 14.4102 40.2019 14.4832 39.9738 14.4832H31.076V21.4276C31.076 21.6362 31.0034 21.8187 30.8582 21.9751C30.713 22.1315 30.5264 22.2097 30.2982 22.2097H26.1293ZM47.8715 22.2097C47.6641 22.2097 47.4826 22.1315 47.3271 21.9751C47.1715 21.8187 47.0938 21.6362 47.0938 21.4276V1.12612C47.0938 0.896721 47.1663 0.703822 47.3115 0.547415C47.4567 0.391008 47.6434 0.312805 47.8715 0.312805H62.3382C62.5663 0.312805 62.7582 0.391008 62.9137 0.547415C63.0693 0.703822 63.1471 0.896721 63.1471 1.12612V4.44193C63.1471 4.67133 63.0693 4.85901 62.9137 5.00499C62.7582 5.15097 62.5663 5.22396 62.3382 5.22396H52.8182V9.57205H61.716C61.9441 9.57205 62.136 9.65026 62.2915 9.80666C62.4471 9.96307 62.5249 10.156 62.5249 10.3854V13.7012C62.5249 13.9306 62.4471 14.1183 62.2915 14.2642C62.136 14.4102 61.9441 14.4832 61.716 14.4832H52.8182V21.4276C52.8182 21.6362 52.7456 21.8187 52.6004 21.9751C52.4552 22.1315 52.2686 22.2097 52.0404 22.2097H47.8715ZM69.6137 22.2097C69.4063 22.2097 69.2248 22.1315 69.0693 21.9751C68.9137 21.8187 68.8359 21.6362 68.8359 21.4276V1.09484C68.8359 0.865439 68.9137 0.677754 69.0693 0.531774C69.2248 0.385794 69.4063 0.312805 69.6137 0.312805H74.0626C74.2908 0.312805 74.4774 0.385794 74.6226 0.531774C74.7678 0.677754 74.8404 0.865439 74.8404 1.09484V21.4276C74.8404 21.6362 74.7678 21.8187 74.6226 21.9751C74.4774 22.1315 74.2908 22.2097 74.0626 22.2097H69.6137ZM90.5153 22.5225C87.5493 22.5225 85.2212 21.803 83.5308 20.3641C81.8404 18.9251 80.9434 16.8189 80.8397 14.0453C80.819 13.4822 80.8086 12.5646 80.8086 11.2925C80.8086 9.99957 80.819 9.06114 80.8397 8.47722C80.9434 5.76616 81.8508 3.67555 83.5619 2.20533C85.273 0.735102 87.5908 0 90.5153 0C92.3612 0 94.0153 0.302382 95.4775 0.907156C96.9397 1.51193 98.096 2.3878 98.9464 3.53478C99.7967 4.68177 100.243 6.03727 100.284 7.60134C100.284 7.78903 100.217 7.94544 100.082 8.07056C99.9471 8.19569 99.7864 8.25825 99.5997 8.25825H95.1819C94.8916 8.25825 94.679 8.2009 94.5442 8.0862C94.4093 7.97151 94.2901 7.75775 94.1864 7.44494C93.896 6.42308 93.4553 5.70883 92.8642 5.30217C92.273 4.89551 91.4901 4.69219 90.5153 4.69219C88.1715 4.69219 86.9582 6.00599 86.8753 8.63363C86.8545 9.19669 86.8441 10.0621 86.8441 11.23C86.8441 12.3978 86.8545 13.2841 86.8753 13.8889C86.9582 16.5165 88.1715 17.8303 90.5153 17.8303C91.4693 17.8303 92.2523 17.6218 92.8642 17.2047C93.476 16.7876 93.9167 16.0786 94.1864 15.0776C94.2693 14.7647 94.3834 14.551 94.5286 14.4363C94.6738 14.3216 94.8916 14.2642 95.1819 14.2642H99.5997C99.7864 14.2642 99.9471 14.3268 100.082 14.4519C100.217 14.5771 100.284 14.7335 100.284 14.9212C100.243 16.4852 99.7967 17.8407 98.9464 18.9877C98.096 20.1347 96.9397 21.0106 95.4775 21.6153C94.0153 22.2201 92.3612 22.5225 90.5153 22.5225ZM106.658 22.2097C106.45 22.2097 106.269 22.1315 106.113 21.9751C105.958 21.8187 105.88 21.6362 105.88 21.4276V1.12612C105.88 0.896721 105.952 0.703822 106.098 0.547415C106.243 0.391008 106.43 0.312805 106.658 0.312805H121.342C121.57 0.312805 121.762 0.391008 121.918 0.547415C122.073 0.703822 122.151 0.896721 122.151 1.12612V4.22296C122.151 4.45236 122.073 4.64004 121.918 4.78602C121.762 4.932 121.57 5.00499 121.342 5.00499H111.511V8.97771H120.658C120.886 8.97771 121.078 9.05591 121.233 9.21232C121.389 9.36873 121.467 9.56163 121.467 9.79102V12.6376C121.467 12.867 121.389 13.0599 121.233 13.2163C121.078 13.3727 120.886 13.4509 120.658 13.4509H111.511V17.5175H121.591C121.819 17.5175 122.011 17.5957 122.167 17.7521C122.322 17.9085 122.4 18.1014 122.4 18.3308V21.4276C122.4 21.657 122.322 21.8447 122.167 21.9907C122.011 22.1367 121.819 22.2097 121.591 22.2097H106.658Z" transform="translate(19.209 102.915)" fill="white"/>
</g>
</svg>
