<svg width="160" height="143" fill="none" xmlns="http://www.w3.org/2000/svg"><g fill-rule="evenodd" clip-rule="evenodd"><path d="M0 28.444C0 18.488 0 13.51 1.938 9.707a17.778 17.778 0 0 1 7.769-7.77C13.51 0 18.488 0 28.444 0h103.112c9.956 0 14.934 0 18.737 1.938a17.776 17.776 0 0 1 7.769 7.769C160 13.51 160 18.488 160 28.444v86.112c0 9.956 0 14.934-1.938 18.737a17.774 17.774 0 0 1-7.769 7.769C146.49 143 141.512 143 131.556 143H28.444c-9.956 0-14.934 0-18.737-1.938a17.776 17.776 0 0 1-7.77-7.769C0 129.49 0 124.512 0 114.556V28.444z" fill="#F3084E"/><path d="M17.777 32.097c0-4.978 0-7.467.97-9.369a8.889 8.889 0 0 1 3.884-3.884c1.901-.969 4.39-.969 9.369-.969h96c4.977 0 7.467 0 9.368.969a8.892 8.892 0 0 1 3.885 3.884c.968 1.902.968 4.391.968 9.37v43.055c0 4.978 0 7.467-.968 9.369a8.892 8.892 0 0 1-3.885 3.884c-1.9.969-4.39.969-9.369.969H32c-4.978 0-7.467 0-9.368-.969a8.89 8.89 0 0 1-3.885-3.884c-.969-1.902-.969-4.391-.969-9.37V32.098z" fill="#fff"/><path d="M37.742 82.672c-.48 0-.867-.175-1.16-.523a1.874 1.874 0 0 1-.44-1.247c0-.375.107-.724.32-1.046l12.32-17.213c-1.28.322-2.773.482-4.48.482-3.84-.053-7.2-.951-10.08-2.694-2.88-1.743-5.08-4.022-6.6-6.837a18.759 18.759 0 0 1-2.28-9.05c0-3.217.76-6.274 2.28-9.17 1.52-2.895 3.786-5.255 6.8-7.078 3.013-1.823 6.653-2.735 10.92-2.735s7.92.885 10.96 2.655c3.04 1.77 5.333 4.089 6.88 6.957a19.115 19.115 0 0 1 2.32 9.21c0 2.95-.52 5.55-1.56 7.803-1.04 2.252-2.413 4.585-4.12 6.998l-15.52 21.88a7.776 7.776 0 0 1-1.08 1.165c-.347.295-.84.443-1.48.443h-4zm7.6-25.901c2.293 0 4.4-.51 6.32-1.528a11.575 11.575 0 0 0 4.56-4.304c1.12-1.85 1.68-3.981 1.68-6.395 0-2.466-.56-4.638-1.68-6.515a11.49 11.49 0 0 0-4.56-4.344c-1.92-1.018-4.027-1.528-6.32-1.528-2.24 0-4.307.51-6.2 1.528-1.894 1.02-3.4 2.467-4.52 4.344-1.12 1.877-1.68 4.049-1.68 6.515 0 2.414.56 4.545 1.68 6.395 1.12 1.85 2.613 3.285 4.48 4.304 1.866 1.018 3.946 1.528 6.24 1.528zm44.462 25.9c-.534 0-.96-.173-1.28-.522-.32-.349-.48-.791-.48-1.327V35.455l-13.44 10.377c-.374.321-.774.482-1.2.482-.48 0-.934-.268-1.36-.804l-1.92-2.494c-.267-.375-.4-.75-.4-1.126 0-.59.266-1.073.8-1.448l17.36-13.513c.586-.376 1.28-.563 2.08-.563h3.76c.533 0 .973.174 1.32.522.346.349.52.791.52 1.328v52.606c0 .536-.174.978-.52 1.327-.347.349-.787.523-1.32.523h-3.92zm32.222 0c-.533 0-.96-.173-1.28-.522-.32-.349-.48-.791-.48-1.327V35.455l-13.44 10.377c-.373.321-.773.482-1.2.482-.48 0-.933-.268-1.36-.804l-1.92-2.494c-.266-.375-.4-.75-.4-1.126 0-.59.267-1.073.8-1.448l17.36-13.513c.587-.376 1.28-.563 2.08-.563h3.76c.534 0 .974.174 1.32.522.347.349.52.791.52 1.328v52.606c0 .536-.173.978-.52 1.327-.346.349-.786.523-1.32.523h-3.92z" fill="#F3084E"/><path d="M28.916 125.438c-2.946 0-5.268-.72-6.97-2.159-1.7-1.439-2.602-3.555-2.706-6.35a83.63 83.63 0 0 1-.031-2.69c0-1.21.01-2.117.031-2.722.083-2.752.99-4.874 2.722-6.365 1.732-1.491 4.05-2.237 6.954-2.237 2.883 0 5.19.746 6.922 2.237 1.732 1.49 2.64 3.613 2.722 6.365.042 1.21.062 2.117.062 2.722 0 .625-.02 1.522-.062 2.69-.104 2.794-1 4.911-2.691 6.35-1.69 1.439-4.008 2.159-6.953 2.159zm0-4.693c1.078 0 1.938-.328 2.582-.985.643-.657.985-1.663 1.026-3.019a86.7 86.7 0 0 0 .062-2.596c0-.521-.02-1.366-.062-2.534-.041-1.355-.384-2.362-1.027-3.018-.642-.657-1.503-.986-2.582-.986-1.099 0-1.97.329-2.613.986-.643.656-.985 1.663-1.027 3.018-.02.584-.03 1.429-.03 2.534 0 1.126.01 1.992.03 2.596.042 1.356.384 2.362 1.027 3.019.643.657 1.514.985 2.613.985zm16.422 4.38a.744.744 0 0 1-.544-.235.752.752 0 0 1-.233-.547V104.04c0-.23.072-.422.217-.579a.73.73 0 0 1 .56-.234h14.467a.78.78 0 0 1 .576.234c.155.157.233.35.233.58v3.315c0 .23-.078.417-.233.563a.81.81 0 0 1-.576.219h-9.52v4.348h8.898a.78.78 0 0 1 .575.235c.156.156.234.349.234.578v3.316c0 .23-.078.417-.234.563a.809.809 0 0 1-.575.22h-8.898v6.944a.78.78 0 0 1-.218.547.73.73 0 0 1-.56.235h-4.169zm21.742 0a.744.744 0 0 1-.544-.235.752.752 0 0 1-.233-.547V104.04c0-.23.072-.422.218-.579a.73.73 0 0 1 .56-.234h14.466a.78.78 0 0 1 .576.234c.155.157.233.35.233.58v3.315c0 .23-.078.417-.233.563a.81.81 0 0 1-.576.219h-9.52v4.348h8.898a.78.78 0 0 1 .575.235c.156.156.234.349.234.578v3.316c0 .23-.078.417-.234.563a.809.809 0 0 1-.575.22h-8.898v6.944a.78.78 0 0 1-.218.547.73.73 0 0 1-.56.235H67.08zm21.743 0a.744.744 0 0 1-.545-.235.752.752 0 0 1-.233-.547V104.01c0-.23.078-.417.233-.563a.77.77 0 0 1 .545-.22h4.449c.228 0 .414.074.56.22a.764.764 0 0 1 .217.563v20.333a.78.78 0 0 1-.217.547.73.73 0 0 1-.56.235h-4.45zm20.901.313c-2.966 0-5.294-.72-6.984-2.159-1.69-1.439-2.588-3.545-2.691-6.319-.021-.563-.031-1.48-.031-2.752 0-1.293.01-2.232.03-2.816.104-2.71 1.012-4.801 2.723-6.272 1.711-1.47 4.029-2.205 6.953-2.205 1.846 0 3.5.302 4.963.907 1.462.605 2.618 1.48 3.468 2.628.85 1.147 1.297 2.502 1.338 4.066a.613.613 0 0 1-.202.47.685.685 0 0 1-.482.187h-4.418c-.29 0-.503-.057-.638-.172-.135-.114-.254-.328-.358-.641-.29-1.022-.73-1.736-1.322-2.143-.591-.406-1.374-.61-2.349-.61-2.344 0-3.557 1.314-3.64 3.942-.02.563-.03 1.428-.03 2.596 0 1.168.01 2.054.03 2.659.083 2.628 1.296 3.941 3.64 3.941.954 0 1.737-.208 2.35-.625.611-.417 1.052-1.126 1.321-2.127.083-.313.197-.527.343-.642.145-.114.363-.172.653-.172h4.418c.186 0 .347.063.482.188a.613.613 0 0 1 .202.47c-.041 1.563-.487 2.919-1.338 4.066-.85 1.147-2.006 2.023-3.468 2.627-1.463.605-3.117.908-4.963.908zm16.143-.313a.745.745 0 0 1-.545-.235.754.754 0 0 1-.233-.547V104.04c0-.23.072-.422.218-.579a.73.73 0 0 1 .56-.234h14.684c.228 0 .42.078.576.234a.79.79 0 0 1 .233.58v3.096a.74.74 0 0 1-.233.563.811.811 0 0 1-.576.219h-9.831v3.973h9.147c.228 0 .42.078.575.234.156.157.234.35.234.579v2.847c0 .229-.078.422-.234.578a.778.778 0 0 1-.575.235h-9.147v4.066h10.08c.228 0 .42.079.576.235a.79.79 0 0 1 .233.579v3.097a.74.74 0 0 1-.233.563.811.811 0 0 1-.576.219h-14.933z" fill="#fff"/></g></svg>