<svg width="24" height="24" fill="none" xmlns="http://www.w3.org/2000/svg"><g clip-path="url(#clip0)" fill="#F3084E"><path d="M19.87 10.762h-1.004V8.739H2.314v3.888c0 4.563 3.713 8.276 8.276 8.276a8.276 8.276 0 0 0 6.946-3.781h2.334a3.184 3.184 0 0 0 3.18-3.18 3.184 3.184 0 0 0-3.18-3.18zm0 4.794h-1.54a8.235 8.235 0 0 0 .536-2.929v-.3h1.004c.89 0 1.614.724 1.614 1.614 0 .89-.724 1.615-1.614 1.615zM20.231 22.435H.951V24h19.28v-1.565zM13.94 4.073c0-.289.062-.39.197-.61.18-.294.425-.697.425-1.427 0-.729-.246-1.132-.426-1.426C14.002.39 13.94.29 13.94 0h-1.565c0 .73.246 1.132.426 1.426.134.22.196.321.196.61 0 .29-.062.39-.196.61-.18.295-.426.698-.426 1.427 0 .73.246 1.132.426 1.426.134.221.196.322.196.61h1.565c0-.728-.246-1.131-.425-1.425-.135-.221-.197-.322-.197-.61zM8.184 4.073c0-.289.062-.39.197-.61.18-.294.425-.697.425-1.427 0-.729-.246-1.132-.425-1.426C8.246.39 8.184.29 8.184 0H6.62c0 .73.246 1.132.426 1.426.135.22.196.321.196.61 0 .29-.061.39-.196.61-.18.295-.426.698-.426 1.427 0 .73.246 1.132.426 1.426.135.221.196.322.196.61h1.565c0-.728-.246-1.131-.425-1.425-.135-.221-.197-.322-.197-.61z"/></g><defs><clipPath id="clip0"><path fill="#fff" d="M0 0h24v24H0z"/></clipPath></defs></svg>