<svg width="20" height="20" viewBox="0 0 20 20" fill="none" xmlns="http://www.w3.org/2000/svg"><path fill-rule="evenodd" clip-rule="evenodd" d="M5.8 0h8.4C17.4 0 20 2.6 20 5.8v8.4a5.8 5.8 0 0 1-5.8 5.8H5.8C2.6 20 0 17.4 0 14.2V5.8A5.8 5.8 0 0 1 5.8 0zm-.2 2A3.6 3.6 0 0 0 2 5.6v8.8C2 16.39 3.61 18 5.6 18h8.8a3.6 3.6 0 0 0 3.6-3.6V5.6C18 3.61 16.39 2 14.4 2H5.6zm10.9 2.75a1.25 1.25 0 1 0-2.5 0 1.25 1.25 0 0 0 2.5 0zM10 5a5 5 0 1 1 0 10 5 5 0 0 1 0-10zm-3 5a3 3 0 1 1 6 0 3 3 0 0 1-6 0z" fill="#91A1BB"/></svg>