<svg width="54" height="48" viewBox="0 0 54 48" fill="none" xmlns="http://www.w3.org/2000/svg"><g opacity=".197" fill-rule="evenodd" clip-rule="evenodd"><path d="M0 9.6c0-3.36 0-5.04.654-6.324A6 6 0 0 1 3.276.654C4.56 0 6.24 0 9.6 0h34.8c3.36 0 5.04 0 6.324.654a6 6 0 0 1 2.622 2.622C54 4.56 54 6.24 54 9.6v28.8c0 3.36 0 5.04-.654 6.324a6 6 0 0 1-2.622 2.622C49.44 48 47.76 48 44.4 48H9.6c-3.36 0-5.04 0-6.324-.654a6 6 0 0 1-2.622-2.622C0 43.44 0 41.76 0 38.4V9.6z" fill="#002B5D"/><path d="M6 10.8c0-1.68 0-2.52.327-3.162a3 3 0 0 1 1.311-1.311C8.28 6 9.12 6 10.8 6h32.4c1.68 0 2.52 0 3.162.327a3 3 0 0 1 1.311 1.311C48 8.28 48 9.12 48 10.8v14.4c0 1.68 0 2.52-.327 3.162a3 3 0 0 1-1.311 1.311C45.72 30 44.88 30 43.2 30H10.8c-1.68 0-2.52 0-3.162-.327a3 3 0 0 1-1.311-1.311C6 27.72 6 26.88 6 25.2V10.8z" fill="#fff"/><path d="M12.738 27.75a.488.488 0 0 1-.392-.175.627.627 0 0 1-.148-.419.62.62 0 0 1 .108-.35l4.158-5.779a6.277 6.277 0 0 1-1.512.162c-1.296-.018-2.43-.32-3.402-.904-.972-.585-1.715-1.35-2.228-2.295a6.27 6.27 0 0 1-.769-3.038c0-1.08.256-2.106.77-3.078.512-.972 1.277-1.764 2.294-2.376 1.017-.612 2.246-.918 3.686-.918s2.673.297 3.699.891c1.026.594 1.8 1.373 2.322 2.336.522.963.783 1.993.783 3.091 0 .99-.176 1.863-.527 2.62a14.954 14.954 0 0 1-1.39 2.348l-5.238 7.344a2.617 2.617 0 0 1-.365.392c-.117.099-.283.148-.499.148h-1.35zm2.565-8.694c.774 0 1.485-.171 2.133-.513a3.898 3.898 0 0 0 1.539-1.445c.378-.62.567-1.336.567-2.146 0-.828-.19-1.557-.567-2.187a3.869 3.869 0 0 0-1.54-1.458 4.499 4.499 0 0 0-2.132-.513c-.756 0-1.454.171-2.093.513a3.893 3.893 0 0 0-1.525 1.458c-.378.63-.567 1.359-.567 2.187 0 .81.189 1.525.567 2.146a3.949 3.949 0 0 0 1.512 1.445c.63.342 1.332.513 2.106.513zm15.006 8.694a.56.56 0 0 1-.432-.175.631.631 0 0 1-.162-.446V11.901l-4.536 3.483a.612.612 0 0 1-.405.162c-.162 0-.315-.09-.459-.27l-.648-.837a.648.648 0 0 1-.135-.378c0-.198.09-.36.27-.486l5.859-4.536a1.28 1.28 0 0 1 .702-.189h1.269a.604.604 0 0 1 .621.621V27.13a.604.604 0 0 1-.621.621h-1.323zm10.875 0a.56.56 0 0 1-.432-.175.631.631 0 0 1-.162-.446V11.901l-4.536 3.483a.612.612 0 0 1-.405.162c-.162 0-.315-.09-.459-.27l-.648-.837a.648.648 0 0 1-.135-.378c0-.198.09-.36.27-.486l5.859-4.536a1.28 1.28 0 0 1 .702-.189h1.269a.604.604 0 0 1 .621.621V27.13a.604.604 0 0 1-.621.621h-1.323z" fill="#002B5D"/><path d="M9.759 42.105c-.994 0-1.778-.242-2.352-.725-.574-.483-.879-1.193-.914-2.131a27.92 27.92 0 0 1-.01-.903c0-.406.003-.71.01-.914.028-.924.335-1.636.92-2.136.584-.5 1.366-.751 2.346-.751.973 0 1.752.25 2.336.75.585.501.89 1.213.919 2.137.014.406.02.71.02.914 0 .21-.006.51-.02.903-.035.938-.338 1.648-.908 2.131-.57.483-1.353.725-2.347.725zm0-1.575c.364 0 .655-.11.872-.33.217-.221.332-.559.346-1.014.014-.406.021-.696.021-.871 0-.175-.007-.459-.021-.85-.014-.456-.13-.794-.346-1.014-.217-.22-.508-.33-.872-.33-.371 0-.665.11-.882.33-.217.22-.332.558-.346 1.013-.007.196-.011.48-.011.85 0 .379.004.67.01.872.015.455.13.793.347 1.013.217.22.511.331.882.331zM15.301 42a.252.252 0 0 1-.183-.079.252.252 0 0 1-.08-.184v-6.814c0-.077.025-.142.074-.194a.247.247 0 0 1 .19-.08h4.882c.077 0 .142.027.194.08a.264.264 0 0 1 .079.194v1.113c0 .077-.026.14-.079.189a.274.274 0 0 1-.194.073H16.97v1.46h3.003a.26.26 0 0 1 .194.079.264.264 0 0 1 .079.194v1.113c0 .077-.026.14-.079.189a.274.274 0 0 1-.194.073H16.97v2.331a.26.26 0 0 1-.263.263H15.3zm7.338 0a.252.252 0 0 1-.183-.079.252.252 0 0 1-.08-.184v-6.814c0-.077.025-.142.074-.194a.247.247 0 0 1 .19-.08h4.882c.077 0 .142.027.194.08a.264.264 0 0 1 .079.194v1.113c0 .077-.026.14-.079.189a.274.274 0 0 1-.194.073h-3.213v1.46h3.003a.26.26 0 0 1 .194.079.264.264 0 0 1 .079.194v1.113c0 .077-.026.14-.079.189a.274.274 0 0 1-.194.073h-3.003v2.331a.26.26 0 0 1-.263.263H22.64zm7.338 0a.252.252 0 0 1-.183-.079.252.252 0 0 1-.08-.184v-6.825c0-.077.027-.14.08-.189a.26.26 0 0 1 .183-.073h1.502c.077 0 .14.024.189.073a.256.256 0 0 1 .073.19v6.824a.26.26 0 0 1-.262.263h-1.502zm7.055.105c-1.001 0-1.787-.242-2.357-.725-.57-.483-.874-1.19-.909-2.12a28.24 28.24 0 0 1-.01-.925c0-.434.003-.749.01-.945.035-.91.342-1.611.92-2.105.577-.493 1.359-.74 2.346-.74.623 0 1.181.101 1.675.304.493.203.883.497 1.17.882.287.385.438.84.452 1.365a.205.205 0 0 1-.068.158.232.232 0 0 1-.163.063h-1.491c-.098 0-.17-.02-.215-.058a.483.483 0 0 1-.121-.215c-.098-.343-.247-.583-.446-.72-.2-.136-.464-.204-.793-.204-.791 0-1.2.44-1.229 1.323-.007.189-.01.48-.01.871 0 .392.003.69.01.893.028.882.438 1.323 1.229 1.323.322 0 .586-.07.793-.21.206-.14.355-.378.446-.714.028-.105.066-.177.115-.215.05-.039.123-.058.22-.058h1.492c.063 0 .117.02.163.063a.205.205 0 0 1 .068.157c-.014.525-.165.98-.452 1.365a2.705 2.705 0 0 1-1.17.882c-.494.203-1.052.305-1.675.305zM42.48 42a.252.252 0 0 1-.184-.079.252.252 0 0 1-.078-.184v-6.814c0-.077.024-.142.073-.194a.247.247 0 0 1 .189-.08h4.956c.077 0 .142.027.194.08a.264.264 0 0 1 .079.194v1.04c0 .076-.026.14-.079.188a.274.274 0 0 1-.194.074h-3.318v1.333h3.087c.077 0 .142.027.194.08a.264.264 0 0 1 .079.193v.956a.264.264 0 0 1-.079.194.264.264 0 0 1-.194.079h-3.087v1.365h3.402a.26.26 0 0 1 .194.079.264.264 0 0 1 .079.194v1.04c0 .076-.026.14-.079.188a.274.274 0 0 1-.194.074h-5.04z" fill="#fff"/></g></svg>