<svg width="54" height="48" viewBox="0 0 54 48" fill="none" xmlns="http://www.w3.org/2000/svg">
<g id="logo-blue" opacity="0.196558">
<path id="bg" fill-rule="evenodd" clip-rule="evenodd" d="M0 9.6C0 6.23969 0 4.55953 0.653961 3.27606C1.2292 2.14708 2.14708 1.2292 3.27606 0.653961C4.55953 0 6.23969 0 9.6 0H44.4C47.7603 0 49.4405 0 50.7239 0.653961C51.8529 1.2292 52.7708 2.14708 53.346 3.27606C54 4.55953 54 6.23969 54 9.6V38.4C54 41.7603 54 43.4405 53.346 44.7239C52.7708 45.8529 51.8529 46.7708 50.7239 47.346C49.4405 48 47.7603 48 44.4 48H9.6C6.23969 48 4.55953 48 3.27606 47.346C2.14708 46.7708 1.2292 45.8529 0.653961 44.7239C0 43.4405 0 41.7603 0 38.4V9.6Z" fill="#002B5D"/>
<path id="number" fill-rule="evenodd" clip-rule="evenodd" d="M0 4.8C0 3.11984 0 2.27976 0.32698 1.63803C0.614601 1.07354 1.07354 0.614601 1.63803 0.32698C2.27976 0 3.11984 0 4.8 0H37.2C38.8802 0 39.7202 0 40.362 0.32698C40.9265 0.614601 41.3854 1.07354 41.673 1.63803C42 2.27976 42 3.11984 42 4.8V19.2C42 20.8802 42 21.7202 41.673 22.362C41.3854 22.9265 40.9265 23.3854 40.362 23.673C39.7202 24 38.8802 24 37.2 24H4.8C3.11984 24 2.27976 24 1.63803 23.673C1.07354 23.3854 0.614601 22.9265 0.32698 22.362C0 21.7202 0 20.8802 0 19.2V4.8Z" transform="translate(6 6)" fill="white"/>
<path id="911" fill-rule="evenodd" clip-rule="evenodd" d="M4.185 19.17C4.023 19.17 3.8925 19.1115 3.7935 18.9945C3.6945 18.8775 3.645 18.738 3.645 18.576C3.645 18.45 3.681 18.333 3.753 18.225L7.911 12.447C7.479 12.555 6.975 12.609 6.399 12.609C5.10299 12.591 3.969 12.2895 2.997 11.7045C2.025 11.1195 1.2825 10.3545 0.7695 9.4095C0.256497 8.4645 0 7.45201 0 6.372C0 5.292 0.256497 4.266 0.7695 3.294C1.2825 2.322 2.04749 1.53 3.0645 0.918C4.08151 0.305997 5.30999 0 6.75 0C8.19001 0 9.423 0.296997 10.449 0.891C11.475 1.485 12.249 2.2635 12.771 3.2265C13.293 4.1895 13.554 5.21999 13.554 6.318C13.554 7.308 13.3785 8.181 13.0275 8.937C12.6765 9.693 12.213 10.476 11.637 11.286L6.399 18.63C6.273 18.792 6.1515 18.9225 6.0345 19.0215C5.9175 19.1205 5.751 19.17 5.535 19.17H4.185ZM6.74994 10.4759C7.52395 10.4759 8.23494 10.3049 8.88294 9.96287C9.53094 9.62087 10.0439 9.13937 10.4219 8.51837C10.7999 7.89736 10.9889 7.18187 10.9889 6.37187C10.9889 5.54386 10.7999 4.81487 10.4219 4.18487C10.0439 3.55486 9.53094 3.06887 8.88294 2.72687C8.23494 2.38487 7.52395 2.21387 6.74994 2.21387C5.99394 2.21387 5.29644 2.38487 4.65744 2.72687C4.01844 3.06887 3.50994 3.55486 3.13194 4.18487C2.75394 4.81487 2.56494 5.54386 2.56494 6.37187C2.56494 7.18187 2.75394 7.89736 3.13194 8.51837C3.50994 9.13937 4.01394 9.62087 4.64394 9.96287C5.27394 10.3049 5.97594 10.4759 6.74994 10.4759ZM21.756 19.17C21.576 19.17 21.432 19.1115 21.324 18.9945C21.216 18.8775 21.162 18.729 21.162 18.549V3.32102L16.626 6.80402C16.5 6.91202 16.365 6.96602 16.221 6.96602C16.059 6.96602 15.906 6.87602 15.762 6.69602L15.114 5.85902C15.024 5.73302 14.979 5.60702 14.979 5.48102C14.979 5.28302 15.069 5.12102 15.249 4.99502L21.108 0.45902C21.306 0.333019 21.54 0.27002 21.81 0.27002H23.079C23.259 0.27002 23.4075 0.328519 23.5245 0.44552C23.6415 0.56252 23.7 0.711019 23.7 0.89102V18.549C23.7 18.729 23.6415 18.8775 23.5245 18.9945C23.4075 19.1115 23.259 19.17 23.079 19.17H21.756ZM32.631 19.17C32.451 19.17 32.307 19.1115 32.199 18.9945C32.091 18.8775 32.037 18.729 32.037 18.549V3.32102L27.501 6.80402C27.375 6.91202 27.24 6.96602 27.096 6.96602C26.934 6.96602 26.781 6.87602 26.637 6.69602L25.989 5.85902C25.899 5.73302 25.854 5.60702 25.854 5.48102C25.854 5.28302 25.944 5.12102 26.124 4.99502L31.983 0.45902C32.181 0.333019 32.415 0.27002 32.685 0.27002H33.954C34.134 0.27002 34.2825 0.328519 34.3995 0.44552C34.5165 0.56252 34.575 0.711019 34.575 0.89102V18.549C34.575 18.729 34.5165 18.8775 34.3995 18.9945C34.2825 19.1115 34.134 19.17 33.954 19.17H32.631Z" transform="translate(8.55298 8.58008)" fill="#002B5D"/>
<path id="office" fill-rule="evenodd" clip-rule="evenodd" d="M3.276 7.56C2.282 7.56 1.498 7.3185 0.924 6.8355C0.349997 6.3525 0.0455002 5.642 0.0105 4.704C0.00349996 4.508 0 4.207 0 3.801C0 3.395 0.00349996 3.0905 0.0105 2.8875C0.0385001 1.9635 0.344747 1.25125 0.92925 0.75075C1.51375 0.250247 2.296 0 3.276 0C4.249 0 5.02775 0.250247 5.61225 0.75075C6.19675 1.25125 6.503 1.9635 6.531 2.8875C6.545 3.2935 6.552 3.598 6.552 3.801C6.552 4.011 6.545 4.312 6.531 4.704C6.496 5.642 6.19325 6.3525 5.62275 6.8355C5.05225 7.3185 4.27001 7.56 3.276 7.56ZM3.27611 5.9852C3.64011 5.9852 3.93061 5.87495 4.14761 5.65445C4.36461 5.43394 4.48011 5.0962 4.49411 4.6412C4.50811 4.23519 4.51511 3.9447 4.51511 3.7697C4.51511 3.59469 4.50811 3.3112 4.49411 2.9192C4.48011 2.46419 4.36461 2.12645 4.14761 1.90595C3.93061 1.68544 3.64011 1.5752 3.27611 1.5752C2.90511 1.5752 2.61111 1.68544 2.39411 1.90595C2.17711 2.12645 2.06161 2.46419 2.04761 2.9192C2.04061 3.1152 2.03711 3.39869 2.03711 3.7697C2.03711 4.1477 2.04061 4.43819 2.04761 4.6412C2.06161 5.0962 2.17711 5.43394 2.39411 5.65445C2.61111 5.87495 2.90511 5.9852 3.27611 5.9852ZM8.81841 7.45498C8.74841 7.45498 8.68716 7.42873 8.63466 7.37623C8.58216 7.32373 8.55591 7.26248 8.55591 7.19248V0.37798C8.55591 0.30098 8.58041 0.236231 8.62941 0.18373C8.67841 0.13123 8.74141 0.10498 8.81841 0.10498H13.7009C13.7779 0.10498 13.8427 0.13123 13.8952 0.18373C13.9477 0.236231 13.9739 0.30098 13.9739 0.37798V1.49098C13.9739 1.56798 13.9477 1.63098 13.8952 1.67998C13.8427 1.72898 13.7779 1.75348 13.7009 1.75348H10.4879V3.21298H13.4909C13.5679 3.21298 13.6327 3.23923 13.6852 3.29173C13.7377 3.34423 13.7639 3.40898 13.7639 3.48598V4.59898C13.7639 4.67598 13.7377 4.73898 13.6852 4.78798C13.6327 4.83698 13.5679 4.86148 13.4909 4.86148H10.4879V7.19248C10.4879 7.26248 10.4634 7.32373 10.4144 7.37623C10.3654 7.42873 10.3024 7.45498 10.2254 7.45498H8.81841ZM16.1565 7.45498C16.0865 7.45498 16.0253 7.42873 15.9728 7.37623C15.9203 7.32373 15.894 7.26248 15.894 7.19248V0.37798C15.894 0.30098 15.9185 0.236231 15.9675 0.18373C16.0165 0.13123 16.0795 0.10498 16.1565 0.10498H21.039C21.116 0.10498 21.1808 0.13123 21.2333 0.18373C21.2858 0.236231 21.312 0.30098 21.312 0.37798V1.49098C21.312 1.56798 21.2858 1.63098 21.2333 1.67998C21.1808 1.72898 21.116 1.75348 21.039 1.75348H17.826V3.21298H20.829C20.906 3.21298 20.9708 3.23923 21.0233 3.29173C21.0758 3.34423 21.102 3.40898 21.102 3.48598V4.59898C21.102 4.67598 21.0758 4.73898 21.0233 4.78798C20.9708 4.83698 20.906 4.86148 20.829 4.86148H17.826V7.19248C17.826 7.26248 17.8015 7.32373 17.7525 7.37623C17.7035 7.42873 17.6405 7.45498 17.5635 7.45498H16.1565ZM23.4944 7.45498C23.4244 7.45498 23.3632 7.42873 23.3107 7.37623C23.2582 7.32373 23.2319 7.26248 23.2319 7.19248V0.36748C23.2319 0.29048 23.2582 0.227481 23.3107 0.17848C23.3632 0.12948 23.4244 0.10498 23.4944 0.10498H24.9959C25.0729 0.10498 25.1359 0.12948 25.1849 0.17848C25.2339 0.227481 25.2584 0.29048 25.2584 0.36748V7.19248C25.2584 7.26248 25.2339 7.32373 25.1849 7.37623C25.1359 7.42873 25.0729 7.45498 24.9959 7.45498H23.4944ZM30.549 7.56C29.5479 7.56 28.7622 7.3185 28.1917 6.8355C27.6212 6.3525 27.3184 5.6455 27.2834 4.7145C27.2764 4.5255 27.2729 4.2175 27.2729 3.7905C27.2729 3.3565 27.2764 3.0415 27.2834 2.8455C27.3184 1.9355 27.6247 1.23375 28.2022 0.74025C28.7797 0.246748 29.5619 0 30.549 0C31.172 0 31.7302 0.101499 32.2237 0.3045C32.7172 0.507501 33.1074 0.801498 33.3944 1.1865C33.6814 1.5715 33.8319 2.0265 33.8459 2.5515C33.8459 2.6145 33.8232 2.667 33.7777 2.709C33.7322 2.751 33.6779 2.772 33.6149 2.772H32.1239C32.0259 2.772 31.9542 2.75275 31.9087 2.71425C31.8632 2.67575 31.8229 2.604 31.7879 2.499C31.6899 2.156 31.5412 1.91625 31.3417 1.77975C31.1422 1.64325 30.878 1.575 30.549 1.575C29.7579 1.575 29.3484 2.016 29.3204 2.898C29.3134 3.087 29.3099 3.3775 29.3099 3.7695C29.3099 4.1615 29.3134 4.459 29.3204 4.662C29.3484 5.544 29.7579 5.985 30.549 5.985C30.871 5.985 31.1352 5.915 31.3417 5.775C31.5482 5.635 31.6969 5.397 31.7879 5.061C31.8159 4.956 31.8544 4.88425 31.9035 4.84575C31.9524 4.80725 32.0259 4.788 32.1239 4.788H33.6149C33.6779 4.788 33.7322 4.809 33.7777 4.851C33.8232 4.893 33.8459 4.9455 33.8459 5.0085C33.8319 5.5335 33.6814 5.9885 33.3944 6.3735C33.1074 6.7585 32.7172 7.0525 32.2237 7.2555C31.7302 7.4585 31.172 7.56 30.549 7.56ZM35.9971 7.45498C35.9271 7.45498 35.8659 7.42873 35.8134 7.37623C35.7609 7.32373 35.7346 7.26248 35.7346 7.19248V0.37798C35.7346 0.30098 35.7591 0.236231 35.8081 0.18373C35.8571 0.13123 35.9201 0.10498 35.9971 0.10498H40.9531C41.0301 0.10498 41.0949 0.13123 41.1474 0.18373C41.1999 0.236231 41.2261 0.30098 41.2261 0.37798V1.41748C41.2261 1.49448 41.1999 1.55748 41.1474 1.60648C41.0949 1.65548 41.0301 1.67998 40.9531 1.67998H37.6351V3.01348H40.7221C40.7991 3.01348 40.8639 3.03973 40.9164 3.09223C40.9689 3.14473 40.9951 3.20948 40.9951 3.28648V4.24198C40.9951 4.31898 40.9689 4.38373 40.9164 4.43623C40.8639 4.48873 40.7991 4.51498 40.7221 4.51498H37.6351V5.87998H41.0371C41.1141 5.87998 41.1789 5.90623 41.2314 5.95873C41.2839 6.01123 41.3101 6.07598 41.3101 6.15298V7.19248C41.3101 7.26948 41.2839 7.33248 41.2314 7.38148C41.1789 7.43048 41.1141 7.45498 41.0371 7.45498H35.9971Z" transform="translate(6.48291 34.5449)" fill="white"/>
</g>
</svg>
