<svg width="20" height="20" fill="none" xmlns="http://www.w3.org/2000/svg"><path fill-rule="evenodd" clip-rule="evenodd" d="M17.05 2.95C15.1 1 12.75 0 10 0S4.9 1 2.95 2.95C1 4.9 0 7.25 0 10s1 5.1 2.95 7.05C4.9 19 7.25 20 10 20h5v-2h-5c-2.19 0-4.07-.77-5.65-2.35S2 12.19 2 10c0-2.19.77-4.07 2.35-5.65S7.81 2 10 2c2.19 0 4.07.77 5.65 2.35S18 7.81 18 10v1.45c0 .41-.13.77-.43 1.08-.3.31-.65.47-1.07.47-.39 0-.74-.16-1.04-.47-.3-.31-.46-.67-.46-1.08V10c0-1.37-.5-2.55-1.46-3.54C12.55 5.5 11.38 5 10 5c-1.37 0-2.55.5-3.54 1.46C5.5 7.45 5 8.63 5 10c0 1.38.5 2.55 1.46 3.54C7.45 14.5 8.63 15 10 15c1.38 0 2.56-.5 3.56-1.5.75 1 1.74 1.5 2.94 1.5 1 0 1.8-.33 2.5-1 .65-.7 1-1.55 1-2.55V10c0-2.75-1-5.1-2.95-7.05zm-4.94 9.16c-.61.59-1.3.89-2.11.89-.81 0-1.5-.3-2.11-.89C7.3 11.5 7 10.81 7 10c0-.81.3-1.5.89-2.11C8.5 7.3 9.19 7 10 7c.81 0 1.5.3 2.11.89.59.61.89 1.3.89 2.11 0 .81-.3 1.5-.89 2.11z" fill="#F3084E"/></svg>