<svg width="18" height="18" viewBox="0 0 18 18" fill="none" xmlns="http://www.w3.org/2000/svg"><path fill-rule="evenodd" clip-rule="evenodd" d="M0 2a2 2 0 0 1 2-2h14a2 2 0 0 1 2 2v14a2 2 0 0 1-2 2H2a2 2 0 0 1-2-2V2zm4 3.5H2.5c-.42 0-.5.2-.5.42 0 .39.5 2.32 2.33 4.88 1.21 1.75 2.93 2.7 4.49 2.7.94 0 1.05-.21 1.05-.57v-1.32c0-.43.09-.51.39-.51.24 0 .59.11 1.47.95.303.302.528.554.711.76.422.47.618.69 1.009.69h1.48c.42 0 .63-.21.51-.63-.14-.41-.61-1.01-1.25-1.72a8.814 8.814 0 0 0-.604-.633c-.18-.176-.335-.327-.406-.427-.22-.29-.18-.41 0-.66 0 0 1.79-2.53 1.98-3.39.1-.31 0-.54-.45-.54h-1.47c-.37 0-.54.2-.64.42 0 0-.75 1.82-1.81 3.01-.34.34-.5.45-.69.45-.1 0-.23-.11-.23-.42V6.04c0-.37-.1-.54-.42-.54H7.14c-.24 0-.38.17-.38.34 0 .133.077.229.175.351.16.2.378.47.415 1.089v2.17c0 .47-.09.55-.28.55-.5 0-1.71-1.83-2.43-3.93-.14-.41-.28-.57-.64-.57z" fill="#91A1BB"/></svg>