<svg width="61" height="80" fill="none" xmlns="http://www.w3.org/2000/svg"><path fill-rule="evenodd" clip-rule="evenodd" d="M26.451 58.548h7.935c3.65-.005 6.608-2.98 6.613-6.653v-1.33h1.322c2.192 0 3.968-1.788 3.968-3.992v-2.661c0-2.205-1.777-3.992-3.968-3.992h-21.16c-.73 0-1.322.596-1.322 1.33v10.645c.004 3.672 2.962 6.648 6.612 6.653zm17.193-14.636v2.66c0 .736-.593 1.331-1.323 1.331H41v-5.322h1.322c.73 0 1.323.596 1.323 1.33zm-5.29-1.331h-15.87v9.314c0 2.205 1.776 3.992 3.967 3.992h7.935c2.192 0 3.968-1.787 3.968-3.992v-9.314z" fill="#F3084E"/><path d="M28.7 37.259h2.645a.983.983 0 0 1 .207-.644 3.76 3.76 0 0 0 0-4.03 1.11 1.11 0 0 1 0-1.294c.393-.597.597-1.3.586-2.016h-2.645a.988.988 0 0 1-.209.648 3.762 3.762 0 0 0 0 4.03c.277.386.277.906 0 1.291a3.576 3.576 0 0 0-.584 2.015zM35.312 37.259h2.645a.983.983 0 0 1 .208-.644 3.76 3.76 0 0 0 0-4.03 1.11 1.11 0 0 1 0-1.294c.392-.597.596-1.3.585-2.016h-2.645a.988.988 0 0 1-.208.648 3.762 3.762 0 0 0 0 4.03c.276.386.276.906 0 1.291a3.576 3.576 0 0 0-.585 2.015zM22.087 37.259h2.645a.983.983 0 0 1 .208-.644 3.76 3.76 0 0 0 0-4.03 1.11 1.11 0 0 1 0-1.294c.392-.597.596-1.3.586-2.016H22.88a.988.988 0 0 1-.21.648 3.762 3.762 0 0 0 0 4.03c.277.386.277.906 0 1.291a3.576 3.576 0 0 0-.584 2.015z" fill="#F3084E"/><path fill-rule="evenodd" clip-rule="evenodd" d="M46.045 6.656h13.469c.73 0 1.322.595 1.322 1.33v70.52c0 .735-.592 1.33-1.322 1.33H1.324c-.73 0-1.323-.595-1.323-1.33V7.986c0-.735.593-1.33 1.323-1.33h13.468a3.97 3.97 0 0 1 3.724-2.661h5.842A6.633 6.633 0 0 1 27.775.556c3.348-1.468 7.245.07 8.705 3.439h5.841a3.97 3.97 0 0 1 3.724 2.66zm.244 7.983v1.33c0 .736-.592 1.331-1.323 1.331H15.872c-.73 0-1.323-.595-1.323-1.33v-1.33H7.937v57.213H52.9V14.64H46.29zM17.194 7.986c0-.735.592-1.33 1.322-1.33h6.785c.605 0 1.132-.414 1.281-1.003.561-2.132 2.733-3.402 4.851-2.837a3.98 3.98 0 0 1 2.82 2.837c.149.59.678 1.004 1.284 1.003h6.784c.73 0 1.323.595 1.323 1.33v6.653h-26.45V7.986zM2.646 77.176h55.545V9.316H46.29v2.662h7.935c.73 0 1.322.596 1.322 1.33v59.876c0 .735-.592 1.33-1.322 1.33H6.614c-.73 0-1.322-.595-1.322-1.33V13.309c0-.735.592-1.331 1.322-1.331h7.935V9.317H2.646v67.858z" fill="#F3084E"/><path fill-rule="evenodd" clip-rule="evenodd" d="M26.451 7.986c0-2.204 1.777-3.991 3.968-3.991s3.967 1.787 3.967 3.991c0 2.205-1.776 3.992-3.967 3.992s-3.968-1.787-3.968-3.992zm2.645 0c0 .735.592 1.33 1.323 1.33.73 0 1.322-.595 1.322-1.33 0-.735-.592-1.33-1.322-1.33-.73 0-1.323.595-1.323 1.33z" fill="#F3084E"/></svg>