<svg width="51" height="80" viewBox="0 0 51 80" fill="none" xmlns="http://www.w3.org/2000/svg">
<path fill-rule="evenodd" clip-rule="evenodd" d="M50.7405 19.5479C50.7881 19.6761 50.8157 19.8111 50.822 19.9478C50.8228 19.9564 50.825 19.9642 50.8274 19.9717C50.8301 19.9808 50.8328 19.9896 50.8328 19.9998V78.6666C50.8328 79.4029 50.2339 79.9998 49.4951 79.9998H1.33765C0.598877 79.9998 0 79.4029 0 78.6666V19.9932C0 19.9837 0.00268555 19.9754 0.00537109 19.9671C0.00805664 19.9588 0.0107422 19.9505 0.0107422 19.9412C0.017334 19.8045 0.0446777 19.6695 0.0922852 19.5411C0.0964355 19.5311 0.100342 19.5196 0.104004 19.5081L0.106689 19.5001L0.108643 19.4937C0.114014 19.4766 0.118896 19.4615 0.123047 19.4532C0.126953 19.4451 0.129395 19.4368 0.131592 19.4285L0.132324 19.4258C0.134521 19.4185 0.136719 19.4109 0.140381 19.4039L4.01318 11.6851V1.33307C4.01318 0.979797 4.15405 0.640686 4.40479 0.390686C4.927 -0.130066 5.77393 -0.13031 6.29663 0.390442L9.36401 3.44781L12.4314 0.390442C12.9536 -0.130066 13.8005 -0.130066 14.3228 0.390442L17.3901 3.44781L20.4575 0.390442C20.98 -0.130066 21.8267 -0.130066 22.3491 0.390442L25.4165 3.44781L28.4836 0.390442C29.0061 -0.130066 29.8528 -0.130066 30.3752 0.390442L33.4426 3.44781L36.51 0.390442C37.0325 -0.130066 37.8792 -0.130066 38.4016 0.390442L41.4688 3.44781L44.5361 0.390442C44.7871 0.140686 45.127 6.10566e-05 45.4817 6.10566e-05C46.2205 6.10566e-05 46.8196 0.596741 46.8196 1.33307V11.6851L50.6924 19.4105C50.6963 19.4183 50.6978 19.4234 50.6995 19.4297C50.7014 19.4366 50.7036 19.4449 50.7097 19.4598C50.7158 19.4744 50.7205 19.4893 50.7251 19.5042L50.7283 19.5132C50.7319 19.5247 50.7358 19.5364 50.7405 19.5479ZM8.41821 6.27594L6.68848 4.55182V10.6666H44.1443V4.55182L42.4146 6.27594C41.8921 6.79645 41.0454 6.79645 40.5229 6.27594L37.4558 3.21857L34.3884 6.27594C33.866 6.79645 33.0193 6.79645 32.4968 6.27594L29.4294 3.21857L26.3621 6.27594C25.8398 6.79645 24.9929 6.79645 24.4707 6.27594L21.4033 3.21857L18.3359 6.27594C17.8135 6.79645 16.9668 6.79645 16.4443 6.27594L13.377 3.21857L10.3096 6.27594C9.78735 6.79645 8.94043 6.79645 8.41821 6.27594ZM44.6553 13.3331L47.3308 18.6663H3.5022L6.17749 13.3331H44.6553ZM2.67529 77.3331H48.1572V21.3331H2.67529V70.6663H37.4556V73.3331H2.67529V77.3331Z" transform="translate(0.166992)" fill="#F3084E"/>
<path d="M0 0H2.67541V2.66667H0V0Z" transform="translate(40.2983 70.6665)" fill="#F3084E"/>
<path fill-rule="evenodd" clip-rule="evenodd" d="M10.7017 26.6667C16.6023 26.6667 21.4033 20.6853 21.4033 13.3333C21.4033 5.98145 16.6023 0 10.7017 0C4.80103 0 0 5.98145 0 13.3333C0 20.6853 4.80103 26.6667 10.7017 26.6667ZM18.7278 13.3335C18.7278 17.7642 16.6838 21.5708 13.7783 23.1802C15.5942 19.5149 14.7166 15.0913 11.6379 12.3909C8.85254 9.93115 8.59521 5.68652 11.063 2.91016C11.125 2.84033 11.1887 2.77148 11.2539 2.7041C15.4277 3.09082 18.7278 7.7041 18.7278 13.3335ZM9.76514 14.2759C6.68628 11.5754 5.80884 7.15186 7.62476 3.48657C4.71924 5.09595 2.67529 8.90259 2.67529 13.3333C2.67529 18.9626 5.97681 23.5759 10.1492 23.9626C10.2136 23.8958 10.2766 23.8276 10.3384 23.7583C12.8071 20.9822 12.5505 16.7368 9.76514 14.2759Z" transform="translate(14.8818 30.6665)" fill="#F3084E"/>
</svg>
