<svg width="20" height="20" viewBox="0 0 20 20" fill="none" xmlns="http://www.w3.org/2000/svg">
  <path
    fill-rule="evenodd"
    clip-rule="evenodd"
    d="M0 10C0 4.47705 4.47705 0 10 0C12.6521 0 15.1958 1.05371 17.071 2.92871C18.9465 4.8042 20 7.34766 20 10C20 12.6523 18.9465 15.1958 17.071 17.0713C15.1958 18.9463 12.6521 20 10 20C7.3479 20 4.8042 18.9463 2.92896 17.0713C1.05347 15.1958 0 12.6523 0 10ZM2 10C2 14.4185 5.58179 18 10 18C14.4182 18 18 14.4185 18 10C18 7.87842 17.1572 5.84326 15.6567 4.34326C14.1565 2.84277 12.1218 2 10 2C5.58179 2 2 5.58154 2 10ZM10 10.5C9.17163 10.5 8.5 9.82861 8.5 9C8.5 8.17139 9.17163 7.5 10 7.5C10.8284 7.5 11.5 8.17139 11.5 9C11.5 9.82861 10.8284 10.5 10 10.5ZM6.19995 9C6.19995 6.90039 7.8999 5.2002 10 5.2002C12.0999 5.2002 13.8 6.90039 13.8 9C13.8 12 10 15.5 10 15.5C10 15.5 6.19995 12 6.19995 9Z"
    fill="#F3084E"/>
</svg>
