<svg width="20" height="20" fill="none" xmlns="http://www.w3.org/2000/svg"><path fill-rule="evenodd" clip-rule="evenodd" d="M10 0C4.477 0 0 4.477 0 10A10 10 0 1 0 10 0zm0 18a8 8 0 1 1 0-16 8 8 0 0 1 0 16zm.672-5.011a8.386 8.386 0 0 1-3.66-3.661l1.221-1.223a.557.557 0 0 0 .14-.566 6.314 6.314 0 0 1-.317-1.983A.556.556 0 0 0 7.5 5H5.556A.557.557 0 0 0 5 5.556 9.445 9.445 0 0 0 14.444 15a.556.556 0 0 0 .556-.556V12.5a.556.556 0 0 0-.556-.556c-.694 0-1.36-.11-1.983-.316a.558.558 0 0 0-.566.139l-1.223 1.222z" fill="#F3084E"/></svg>