<svg width="64" height="80" viewBox="0 0 64 80" fill="none" xmlns="http://www.w3.org/2000/svg">
<path fill-rule="evenodd" clip-rule="evenodd" d="M1.3335 0H62.6665C63.4028 0 64 0.596985 64 1.33331V78.6666C64 79.403 63.4028 80 62.6665 80H1.3335C0.597168 80 0 79.403 0 78.6666V1.33331C0 0.596985 0.597168 0 1.3335 0ZM2.6665 77.3334H61.333V2.66669H2.6665V77.3334Z" fill="#F3084E"/>
<path d="M1.33333 13.3333H6.66667V10.6667H2.66667V2.66667H6.66667V0H1.33333C0.597 0 0 0.597 0 1.33333V12C0 12.7363 0.597 13.3333 1.33333 13.3333Z" transform="translate(8 10.6667)" fill="#F3084E"/>
<path fill-rule="evenodd" clip-rule="evenodd" d="M6.6665 13.3333H1.3335C0.597168 13.3333 0 12.7363 0 12V1.33331C0 0.596985 0.597168 0 1.3335 0H6.6665C7.40283 0 8 0.596985 8 1.33331V12C8 12.7363 7.40283 13.3333 6.6665 13.3333ZM5.33301 2.66669H2.6665V10.6667H5.33301V2.66669Z" transform="translate(16 10.6667)" fill="#F3084E"/>
<path d="M2.66667 6.66667H6.66667V4H2.66667V2.66667H6.66667V0H1.33333C0.597 0 0 0.597 0 1.33333V13.3333H2.66667V6.66667Z" transform="translate(25.3335 10.6667)" fill="#F3084E"/>
<path d="M2.66667 6.66667H6.66667V4H2.66667V2.66667H6.66667V0H1.33333C0.597 0 0 0.597 0 1.33333V13.3333H2.66667V6.66667Z" transform="translate(33.3335 10.6667)" fill="#F3084E"/>
<path d="M1.33333 13.3333H6.66667V10.6667H2.66667V8H6.66667V5.33333H2.66667V2.66667H6.66667V0H1.33333C0.597 0 0 0.597 0 1.33333V12C0 12.7363 0.597 13.3333 1.33333 13.3333Z" transform="translate(41.3335 10.6667)" fill="#F3084E"/>
<path d="M1.33333 13.3333H6.66667V10.6667H2.66667V8H6.66667V5.33333H2.66667V2.66667H6.66667V0H1.33333C0.597 0 0 0.597 0 1.33333V12C0 12.7363 0.597 13.3333 1.33333 13.3333Z" transform="translate(49.3335 10.6667)" fill="#F3084E"/>
<path fill-rule="evenodd" clip-rule="evenodd" d="M22.6665 0H1.3335C0.597168 0 0 0.597046 0 1.33337V14.6666C0.00439453 18.3467 2.98682 21.329 6.6665 21.3334H14.6665C18.3467 21.329 21.3291 18.3467 21.3335 14.6666V10.6666H22.6665C24.876 10.6666 26.6665 8.87585 26.6665 6.66663V4C26.6665 1.79089 24.876 0 22.6665 0ZM18.6665 14.6666C18.6665 16.8757 16.8755 18.6666 14.6665 18.6666H6.6665C4.45752 18.6666 2.6665 16.8757 2.6665 14.6666V2.66663H18.6665V14.6666ZM22.667 8C23.4033 8 24 7.40295 24 6.66663V4C24 3.26367 23.4033 2.66663 22.667 2.66663H21.3335V8H22.667Z" transform="translate(21.3335 42.6666)" fill="#F3084E"/>
<path d="M3.46701 0H0.800348C0.810348 0.234167 0.736181 0.464 0.591015 0.648C-0.196486 1.8795 -0.196486 3.4565 0.591015 4.688C0.870015 5.074 0.870015 5.59533 0.591015 5.98133C0.196181 6.57983 -0.00965218 7.28317 0.000347825 8H2.66701C2.65718 7.76683 2.73151 7.53783 2.87635 7.35467C3.66401 6.12367 3.66401 4.547 2.87635 3.316C2.59735 2.929 2.59735 2.407 2.87635 2.02C3.27185 1.42133 3.47768 0.717333 3.46701 0Z" transform="translate(30.2661 32)" fill="#F3084E"/>
<path d="M3.46701 0H0.800348C0.810348 0.234167 0.736181 0.464 0.591015 0.648C-0.196486 1.8795 -0.196486 3.4565 0.591015 4.688C0.870015 5.074 0.870015 5.59533 0.591015 5.98133C0.196181 6.57983 -0.00965218 7.28317 0.000347825 8H2.66701C2.65718 7.76683 2.73151 7.53783 2.87635 7.35467C3.66401 6.12367 3.66401 4.547 2.87635 3.316C2.59735 2.929 2.59735 2.407 2.87635 2.02C3.27185 1.42133 3.47768 0.717333 3.46701 0Z" transform="translate(36.9331 32)" fill="#F3084E"/>
<path d="M0.591015 4.688C0.870015 5.074 0.870015 5.59533 0.591015 5.98133C0.196181 6.57983 -0.00965218 7.28317 0.000347825 8H2.66701C2.65718 7.76683 2.73151 7.53783 2.87635 7.35467C3.66401 6.12367 3.66401 4.547 2.87635 3.316C2.59735 2.929 2.59735 2.407 2.87635 2.02C3.27185 1.42133 3.47768 0.717333 3.46701 0H0.800348C0.810348 0.234167 0.736181 0.464 0.591015 0.648C-0.196486 1.8795 -0.196486 3.4565 0.591015 4.688Z" transform="translate(23.5996 32)" fill="#F3084E"/>
</svg>
