<svg width="80" height="80" fill="none" xmlns="http://www.w3.org/2000/svg"><path fill-rule="evenodd" clip-rule="evenodd" d="M70.666 22.667h-6.911A3.96 3.96 0 0 0 64 21.333c0-8.1-6.566-14.666-14.666-14.666H30.666c-2.638 0-5.916-4.459-6.856-6.02-.266-.45-.77-.7-1.288-.638-.518.057-.955.41-1.12.903-.809 2.421-6.42 4.847-9.669 5.781C2.036 8.633 0 14.275 0 18.667a6.636 6.636 0 0 0 1.368 4h-.035C.597 22.667 0 23.264 0 24v21.333C0 55.673 8.445 80 20 80h24c10.247 0 18.042-19.124 19.677-30.667h6.99A9.346 9.346 0 0 0 80 40v-8a9.346 9.346 0 0 0-9.334-9.333zm-9.333 22.666c0 5.2-2.194 13.404-5.333 19.958-3.673 7.653-8.045 12.042-12 12.042H20c-3.955 0-8.327-4.389-12-12.042-3.139-6.554-5.333-14.758-5.333-19.958v-20h58.666v20zM6.667 22.667H60c.736 0 1.333-.597 1.333-1.334 0-6.627-5.373-12-12-12H30.667c-3.313 0-6.345-3.373-7.962-5.56-2.95 3.314-9.477 5.262-10.34 5.51-6.47 1.298-9.698 4.45-9.698 9.384a4.025 4.025 0 0 0 1.175 2.837 4.015 4.015 0 0 0 2.825 1.163zm57.333 8h6.666c.737 0 1.334.597 1.334 1.333v8c0 .736-.597 1.333-1.334 1.333H64V30.667zm6.666 16A6.675 6.675 0 0 0 77.335 40v-8a6.675 6.675 0 0 0-6.668-6.667H64V28h6.666a4 4 0 0 1 4 4v8a4 4 0 0 1-4 4H64v2.667h6.666z" fill="#F3084E"/></svg>